<?xml version="1.0" encoding="utf-8"?>
<!-- Generator: Adobe Illustrator 22.1.0, SVG Export Plug-In . SVG Version: 6.00 Build 0)  -->
<svg version="1.1" id="Layer_1" xmlns="http://www.w3.org/2000/svg" xmlns:xlink="http://www.w3.org/1999/xlink" x="0px" y="0px"
	 viewBox="0 0 360 640" style="enable-background:new 0 0 360 640;" xml:space="preserve">
<style type="text/css">
	.st0{clip-path:url(#SVGID_2_);}
	.st1{clip-path:url(#SVGID_4_);fill:#F78F39;}
	.st2{clip-path:url(#SVGID_6_);}
	.st3{clip-path:url(#SVGID_8_);fill:#F78F39;}
	.st4{clip-path:url(#SVGID_10_);}
	.st5{clip-path:url(#SVGID_12_);fill:#F78F39;}
	.st6{clip-path:url(#SVGID_14_);}
	.st7{clip-path:url(#SVGID_16_);fill:#F78F39;}
	.st8{clip-path:url(#SVGID_18_);}
	.st9{clip-path:url(#SVGID_20_);fill:#F78F39;}
	.st10{clip-path:url(#SVGID_22_);}
	.st11{clip-path:url(#SVGID_24_);fill:#F78F39;}
	.st12{clip-path:url(#SVGID_26_);}
	.st13{clip-path:url(#SVGID_28_);fill:#F78F39;}
	.st14{clip-path:url(#SVGID_30_);}
	.st15{clip-path:url(#SVGID_32_);fill:#F78F39;}
	.st16{clip-path:url(#SVGID_34_);}
	.st17{clip-path:url(#SVGID_36_);fill:#F78F39;}
	.st18{clip-path:url(#SVGID_38_);}
	.st19{clip-path:url(#SVGID_40_);fill:#F78F39;}
	.st20{clip-path:url(#SVGID_42_);}
	.st21{clip-path:url(#SVGID_44_);fill:#F78F39;}
	.st22{clip-path:url(#SVGID_46_);}
	.st23{clip-path:url(#SVGID_48_);fill:#F78F39;}
	.st24{clip-path:url(#SVGID_50_);}
	.st25{clip-path:url(#SVGID_52_);fill:#F78F39;}
	.st26{clip-path:url(#SVGID_54_);}
	.st27{clip-path:url(#SVGID_56_);fill:#F78F39;}
</style>
<g>
	<g>
		<defs>
			<path id="SVGID_1_" d="M126.5,340c0.5,0,1,0.2,1.4,0.6c0.4,0.4,0.6,0.9,0.6,1.4v0.5c0.9-1.2,2.2-2.2,3.7-2.9
				c1.6-0.7,3.2-1.1,4.9-1.1c2.2,0,4.2,0.5,6,1.6c1.8,1.1,3.3,2.5,4.4,4.3c1.1-1.8,2.7-3.2,4.6-4.3c1.9-1.1,4-1.6,6.3-1.6
				c1.7,0,3.4,0.3,4.9,1c1.6,0.7,2.9,1.6,4,2.7c1.1,1.1,2.1,2.5,2.7,4.1c0.6,1.6,1,3.2,0.9,4.9v15c0,0.5-0.2,1-0.6,1.4
				c-0.4,0.4-0.9,0.6-1.4,0.6c-0.5,0-1-0.2-1.4-0.6c-0.4-0.4-0.6-0.9-0.6-1.4v-15c0-1.2-0.2-2.3-0.7-3.4c-0.5-1.1-1.1-2-1.8-2.7
				c-0.8-0.8-1.7-1.4-2.7-1.9c-1.1-0.5-2.2-0.7-3.3-0.7c-1.2,0-2.3,0.2-3.3,0.7c-1.1,0.5-2,1.1-2.7,1.9c-0.8,0.8-1.4,1.7-1.9,2.7
				c-0.4,1-0.6,2-0.7,3.2v15.2c0,0.5-0.2,1-0.6,1.4c-0.4,0.4-0.9,0.6-1.4,0.6c-0.5,0-1-0.2-1.4-0.6c-0.4-0.4-0.6-0.9-0.6-1.4v-15
				c-0.1-1.2-0.4-2.4-0.9-3.5c-0.5-1.1-1.1-2-1.9-2.7c-0.8-0.8-1.6-1.4-2.7-1.8c-1-0.4-2.1-0.6-3.3-0.6s-2.3,0.2-3.3,0.7
				c-1.1,0.5-2,1.1-2.7,2c-0.8,0.8-1.4,1.7-1.9,2.8c-0.4,0.9-0.6,1.8-0.7,2.8v15.4c0,0.5-0.2,1-0.6,1.4c-0.4,0.4-0.9,0.6-1.4,0.6
				c-0.5,0-1-0.2-1.4-0.6c-0.4-0.4-0.6-0.9-0.6-1.4V344h-1.6c-0.5,0-1-0.2-1.4-0.6c-0.4-0.4-0.6-0.9-0.6-1.4c0-0.5,0.2-1,0.6-1.4
				c0.4-0.4,0.9-0.6,1.4-0.6H126.5z"/>
		</defs>
		<use xlink:href="#SVGID_1_"  style="overflow:visible;fill-rule:evenodd;clip-rule:evenodd;fill:#F78F39;"/>
		<clipPath id="SVGID_2_">
			<use xlink:href="#SVGID_1_"  style="overflow:visible;"/>
		</clipPath>
		<g class="st0">
			<defs>
				<rect id="SVGID_3_" x="0" y="0.6" width="360" height="640"/>
			</defs>
			<use xlink:href="#SVGID_3_"  style="overflow:visible;fill:#F78F39;"/>
			<clipPath id="SVGID_4_">
				<use xlink:href="#SVGID_3_"  style="overflow:visible;"/>
			</clipPath>
			<rect x="115.9" y="333.5" class="st1" width="60.1" height="39.8"/>
		</g>
	</g>
	<g>
		<defs>
			<path id="SVGID_5_" d="M198.9,345.9c-1.1-1.1-2.3-1.9-3.7-2.5c-1.4-0.6-2.9-0.9-4.5-0.9c-1.6,0-3.1,0.3-4.5,0.9
				c-1.4,0.6-2.7,1.4-3.7,2.5c-0.9,0.9-1.6,1.9-2.2,3.1H201C200.5,347.8,199.7,346.8,198.9,345.9z M179.2,352.9c0,0.4,0,0.8,0,1.2
				c0,1.6,0.3,3.1,0.9,4.5c0.6,1.4,1.4,2.7,2.5,3.7c1.1,1.1,2.3,1.9,3.7,2.5c1.4,0.6,2.9,0.9,4.5,0.9c1.6,0,3.1-0.3,4.5-0.9
				c1.4-0.6,2.7-1.4,3.7-2.5c0.5-0.5,1-1.1,1.2-1.4c0.2-0.3,0.4-0.6,0.7-0.8c0.3-0.2,0.6-0.4,1.1-0.4c0.5,0,1,0.2,1.4,0.6
				c0.4,0.4,0.6,0.9,0.6,1.4v0.2c-0.1,0.7-0.8,1.8-2.2,3.2c-1.4,1.4-3.1,2.5-4.9,3.3c-1.9,0.8-3.9,1.2-6,1.2c-2.2,0-4.2-0.4-6-1.2
				c-1.9-0.8-3.5-1.9-4.9-3.3c-1.4-1.4-2.5-3.1-3.3-4.9c-0.8-1.9-1.2-3.9-1.2-6c0-2.2,0.4-4.2,1.2-6c0.8-1.9,1.9-3.5,3.3-4.9
				c1.4-1.4,3.1-2.5,4.9-3.3c1.9-0.8,3.9-1.2,6-1.2c2.2,0,4.2,0.4,6,1.2c1.9,0.8,3.5,1.9,4.9,3.3c1.4,1.4,2.5,3.1,3.3,4.9
				c0.5,1.1,0.7,2,0.8,2.4c0.2,0.9,0.1,1.6-0.3,1.9c-0.4,0.4-0.9,0.5-1.6,0.5H179.2z"/>
		</defs>
		<use xlink:href="#SVGID_5_"  style="overflow:visible;fill-rule:evenodd;clip-rule:evenodd;fill:#F78F39;"/>
		<clipPath id="SVGID_6_">
			<use xlink:href="#SVGID_5_"  style="overflow:visible;"/>
		</clipPath>
		<g class="st2">
			<defs>
				<rect id="SVGID_7_" x="0" y="0.6" width="360" height="640"/>
			</defs>
			<use xlink:href="#SVGID_7_"  style="overflow:visible;fill:#F78F39;"/>
			<clipPath id="SVGID_8_">
				<use xlink:href="#SVGID_7_"  style="overflow:visible;"/>
			</clipPath>
			<rect x="170.1" y="333.5" class="st3" width="40.7" height="41.1"/>
		</g>
	</g>
	<g>
		<defs>
			<path id="SVGID_9_" d="M237.6,340c0.5,0,1,0.2,1.4,0.6c0.4,0.4,0.6,0.9,0.6,1.4c0,0.5-0.2,1-0.6,1.4c-0.4,0.4-0.9,0.6-1.4,0.6
				H236v11.6c0,1.7-0.3,3.4-1,4.9c-0.6,1.6-1.6,2.9-2.7,4c-1.1,1.1-2.5,2.1-4,2.7c-1.6,0.7-3.2,1-4.9,1c-1.7,0-3.4-0.3-4.9-1
				c-1.6-0.7-2.9-1.6-4-2.7c-1.1-1.1-2.1-2.5-2.7-4c-0.6-1.5-1-3.2-1-4.9V344h-1.6c-0.5,0-1-0.2-1.4-0.6c-0.4-0.4-0.6-0.9-0.6-1.4
				c0-0.5,0.2-1,0.6-1.4c0.4-0.4,0.9-0.6,1.4-0.6h3.6c0.5,0,1,0.2,1.4,0.6c0.4,0.4,0.6,0.9,0.6,1.4v13.6c0,1.2,0.2,2.3,0.7,3.4
				c0.5,1.1,1.1,2,1.9,2.7c0.8,0.8,1.7,1.4,2.7,1.8c1.1,0.5,2.2,0.7,3.3,0.7s2.3-0.2,3.4-0.7c1.1-0.5,2-1.1,2.7-1.8
				c0.8-0.8,1.4-1.7,1.9-2.7c0.5-1.1,0.7-2.2,0.7-3.4V342c0-0.5,0.2-1,0.6-1.4c0.4-0.4,0.9-0.6,1.4-0.6H237.6z"/>
		</defs>
		<use xlink:href="#SVGID_9_"  style="overflow:visible;fill-rule:evenodd;clip-rule:evenodd;fill:#F78F39;"/>
		<clipPath id="SVGID_10_">
			<use xlink:href="#SVGID_9_"  style="overflow:visible;"/>
		</clipPath>
		<g class="st4">
			<defs>
				<rect id="SVGID_11_" x="0" y="0.6" width="360" height="640"/>
			</defs>
			<use xlink:href="#SVGID_11_"  style="overflow:visible;fill:#F78F39;"/>
			<clipPath id="SVGID_12_">
				<use xlink:href="#SVGID_11_"  style="overflow:visible;"/>
			</clipPath>
			<rect x="202.1" y="335" class="st5" width="42.5" height="38.2"/>
		</g>
	</g>
	<g>
		<defs>
			<path id="SVGID_13_" d="M165.6,371.8c-0.6,4.9-1.2,9.7-1.8,14.5c-0.6,4.9-1.2,9.8-1.8,14.6c0,0.1,0,0.2,0,0.3
				c-2.1,0-4.3,0.2-6.3,0c-2.1-0.3-3.3-2.3-3.1-4.6c0.4-3.5,0.8-6.9,1.2-10.4c0-0.2,0-0.5-0.1-0.7c-0.1,0.3-0.3,0.6-0.4,1
				c-2,4.7-4,9.4-5.9,14.1c-0.3,0.6-0.6,0.9-1.3,0.9c-2.8,0-5.7,0-8.7,0c-1-5.3-2-10.6-3-15.8h-0.2c-0.2,1.3-0.4,2.6-0.5,3.9
				c-0.3,2.4-0.5,4.9-1,7.3c-0.4,2.5-2.2,4.3-4.7,4.5c-2,0.2-4,0-6,0v-0.8c0-0.3,0.1-0.5,0.2-0.8c0.8-6.4,1.6-12.8,2.4-19.2
				c0.4-2.9,0.7-5.8,1-8.7h12.2c2.2,0.5,3.2,2,3.6,4c0.4,2.2,0.8,4.4,1.2,6.5c0.3,1.6,0.6,3.1,0.9,4.9c0.3-0.6,0.5-1,0.6-1.3
				c1.5-3.6,3-7.1,4.5-10.7c0.6-1.4,1.6-2.5,3.1-3.1c0.4-0.1,0.8-0.3,1.1-0.4C157.1,371.8,161.3,371.8,165.6,371.8z"/>
		</defs>
		<use xlink:href="#SVGID_13_"  style="overflow:visible;fill-rule:evenodd;clip-rule:evenodd;fill:#F78F39;"/>
		<clipPath id="SVGID_14_">
			<use xlink:href="#SVGID_13_"  style="overflow:visible;"/>
		</clipPath>
		<g class="st6">
			<defs>
				<rect id="SVGID_15_" x="0" y="0.6" width="360" height="640"/>
			</defs>
			<use xlink:href="#SVGID_15_"  style="overflow:visible;fill:#F78F39;"/>
			<clipPath id="SVGID_16_">
				<use xlink:href="#SVGID_15_"  style="overflow:visible;"/>
			</clipPath>
			<rect x="117" y="366.8" class="st7" width="53.6" height="39.6"/>
		</g>
	</g>
	<g>
		<defs>
			<path id="SVGID_17_" d="M176.7,380.5c-0.2,2-0.5,3.9-0.7,5.9c-0.5,3.4-0.8,6.9-1.3,10.3c-0.4,2.6-2.6,4.6-5.2,4.8
				c-1.8,0.1-3.6,0-5.5,0c1.2-9.9,2.4-19.6,3.7-29.5h1.2c7.2,0,14.4,0,21.6,0c3.9,0,7.1,1.3,9,4.9c1.9,3.7,1.4,7.2-0.7,10.6
				c-0.5,0.8-1.2,1.6-1.9,2.2c-0.7,0.7-1.5,1.2-2.3,1.9c2.6,3.2,5.2,6.5,7.9,9.8c-0.4,0-0.6,0.1-0.9,0.1c-2.2,0-10,1.3-13.3-3
				c-3.3-4.1-6.6-8.2-10.1-12.4c0.5,0,0.7,0,1.1,0h9.5c2,0,3.4-1.7,3.2-3.6c-0.1-1.1-0.9-2-1.9-2
				C185.5,380.5,181.2,380.5,176.7,380.5z"/>
		</defs>
		<use xlink:href="#SVGID_17_"  style="overflow:visible;fill-rule:evenodd;clip-rule:evenodd;fill:#F78F39;"/>
		<clipPath id="SVGID_18_">
			<use xlink:href="#SVGID_17_"  style="overflow:visible;"/>
		</clipPath>
		<g class="st8">
			<defs>
				<rect id="SVGID_19_" x="0" y="0.6" width="360" height="640"/>
			</defs>
			<use xlink:href="#SVGID_19_"  style="overflow:visible;fill:#F78F39;"/>
			<clipPath id="SVGID_20_">
				<use xlink:href="#SVGID_19_"  style="overflow:visible;"/>
			</clipPath>
			<rect x="159.1" y="366.9" class="st9" width="48.4" height="39.8"/>
		</g>
	</g>
	<g>
		<defs>
			<path id="SVGID_21_" d="M201.1,372.6c2.6,0,4.9-0.1,7.4,0c2.4,0.2,4,1.6,4.8,3.9c1.8,4.9,3.6,9.7,5.4,14.6
				c0.1,0.3,0.3,0.6,0.5,1.1c0.2-0.4,0.4-0.6,0.5-0.9c3.3-6,6.5-12,9.7-18c0.3-0.6,0.7-0.9,1.4-0.8c2.8,0,5.7,0,8.7,0
				c-0.2,0.4-0.3,0.6-0.5,0.9c-4.2,7.8-8.4,15.6-12.6,23.4c-2.3,4.3-6.1,6.1-10.9,5.2c-2.7-0.5-4.3-2.2-5.2-4.6
				c-1.4-3.7-2.7-7.4-4.1-11c-1.6-4.3-3.2-8.6-4.7-12.8C201.3,373.3,201.3,373,201.1,372.6z"/>
		</defs>
		<use xlink:href="#SVGID_21_"  style="overflow:visible;fill-rule:evenodd;clip-rule:evenodd;fill:#F78F39;"/>
		<clipPath id="SVGID_22_">
			<use xlink:href="#SVGID_21_"  style="overflow:visible;"/>
		</clipPath>
		<g class="st10">
			<defs>
				<rect id="SVGID_23_" x="0" y="0.6" width="360" height="640"/>
			</defs>
			<use xlink:href="#SVGID_23_"  style="overflow:visible;fill:#F78F39;"/>
			<clipPath id="SVGID_24_">
				<use xlink:href="#SVGID_23_"  style="overflow:visible;"/>
			</clipPath>
			<rect x="196.1" y="367.5" class="st11" width="48.4" height="39.7"/>
		</g>
	</g>
	<g>
		<defs>
			<path id="SVGID_25_" d="M214.4,372.6h12.7c-2.5,4.6-4.9,9.1-7.5,13.8C217.8,381.7,216.1,377.2,214.4,372.6z"/>
		</defs>
		<use xlink:href="#SVGID_25_"  style="overflow:visible;fill-rule:evenodd;clip-rule:evenodd;fill:#F78F39;"/>
		<clipPath id="SVGID_26_">
			<use xlink:href="#SVGID_25_"  style="overflow:visible;"/>
		</clipPath>
		<g class="st12">
			<defs>
				<rect id="SVGID_27_" x="0" y="0.6" width="360" height="640"/>
			</defs>
			<use xlink:href="#SVGID_27_"  style="overflow:visible;fill:#F78F39;"/>
			<clipPath id="SVGID_28_">
				<use xlink:href="#SVGID_27_"  style="overflow:visible;"/>
			</clipPath>
			<rect x="209.4" y="367.6" class="st13" width="22.7" height="23.8"/>
		</g>
	</g>
	<g>
		<defs>
			<polygon id="SVGID_29_" points="231.5,292.2 239.4,296 200.2,315.3 161.1,296 169,292.2 200.2,307.6 			"/>
		</defs>
		<use xlink:href="#SVGID_29_"  style="overflow:visible;fill-rule:evenodd;clip-rule:evenodd;fill:#F78F39;"/>
		<clipPath id="SVGID_30_">
			<use xlink:href="#SVGID_29_"  style="overflow:visible;"/>
		</clipPath>
		<g class="st14">
			<defs>
				<rect id="SVGID_31_" x="0" y="0.6" width="360" height="640"/>
			</defs>
			<use xlink:href="#SVGID_31_"  style="overflow:visible;fill:#F78F39;"/>
			<clipPath id="SVGID_32_">
				<use xlink:href="#SVGID_31_"  style="overflow:visible;"/>
			</clipPath>
			<rect x="156.1" y="287.2" class="st15" width="88.2" height="33.1"/>
		</g>
	</g>
	<g>
		<defs>
			<polygon id="SVGID_33_" points="232.1,306.8 239.9,310.6 200.8,329.9 161.7,310.6 169.5,306.8 200.8,322.2 			"/>
		</defs>
		<use xlink:href="#SVGID_33_"  style="overflow:visible;fill-rule:evenodd;clip-rule:evenodd;fill:#F78F39;"/>
		<clipPath id="SVGID_34_">
			<use xlink:href="#SVGID_33_"  style="overflow:visible;"/>
		</clipPath>
		<g class="st16">
			<defs>
				<rect id="SVGID_35_" x="0" y="0.6" width="360" height="640"/>
			</defs>
			<use xlink:href="#SVGID_35_"  style="overflow:visible;fill:#F78F39;"/>
			<clipPath id="SVGID_36_">
				<use xlink:href="#SVGID_35_"  style="overflow:visible;"/>
			</clipPath>
			<rect x="156.7" y="301.8" class="st17" width="88.2" height="33.1"/>
		</g>
	</g>
	<g>
		<defs>
			<path id="SVGID_37_" d="M187.4,230.4l12.9-6.3l26.2,12.8l-26.2,12.8l-12.9-6.3v6.4l12.9,6.3l39.1-19.2l-39.1-19.2l-13.4,6.6
				c0.4,1,0.5,2.1,0.5,3.2V230.4z"/>
		</defs>
		<use xlink:href="#SVGID_37_"  style="overflow:visible;fill-rule:evenodd;clip-rule:evenodd;fill:#F78F39;"/>
		<clipPath id="SVGID_38_">
			<use xlink:href="#SVGID_37_"  style="overflow:visible;"/>
		</clipPath>
		<g class="st18">
			<defs>
				<rect id="SVGID_39_" x="0" y="0.6" width="360" height="640"/>
			</defs>
			<use xlink:href="#SVGID_39_"  style="overflow:visible;fill:#F78F39;"/>
			<clipPath id="SVGID_40_">
				<use xlink:href="#SVGID_39_"  style="overflow:visible;"/>
			</clipPath>
			<rect x="181.8" y="212.7" class="st19" width="62.5" height="48.5"/>
		</g>
	</g>
	<g>
		<defs>
			<path id="SVGID_41_" d="M181.7,275.9l18.7,9.2l39.1-19.2l-7.8-3.8l-31.3,15.4l-13.7-6.7C185.7,272.9,183.9,274.8,181.7,275.9z"/>
		</defs>
		<use xlink:href="#SVGID_41_"  style="overflow:visible;fill-rule:evenodd;clip-rule:evenodd;fill:#F78F39;"/>
		<clipPath id="SVGID_42_">
			<use xlink:href="#SVGID_41_"  style="overflow:visible;"/>
		</clipPath>
		<g class="st20">
			<defs>
				<rect id="SVGID_43_" x="0" y="0.6" width="360" height="640"/>
			</defs>
			<use xlink:href="#SVGID_43_"  style="overflow:visible;fill:#F78F39;"/>
			<clipPath id="SVGID_44_">
				<use xlink:href="#SVGID_43_"  style="overflow:visible;"/>
			</clipPath>
			<rect x="176.7" y="257" class="st21" width="67.8" height="33.1"/>
		</g>
	</g>
	<g>
		<defs>
			<polygon id="SVGID_45_" points="200,292.3 169.5,277.3 169.5,285 200,300 239.1,280.8 231.3,276.9 			"/>
		</defs>
		<use xlink:href="#SVGID_45_"  style="overflow:visible;fill-rule:evenodd;clip-rule:evenodd;fill:#F78F39;"/>
		<clipPath id="SVGID_46_">
			<use xlink:href="#SVGID_45_"  style="overflow:visible;"/>
		</clipPath>
		<g class="st22">
			<defs>
				<rect id="SVGID_47_" x="0" y="0.6" width="360" height="640"/>
			</defs>
			<use xlink:href="#SVGID_47_"  style="overflow:visible;fill:#F78F39;"/>
			<clipPath id="SVGID_48_">
				<use xlink:href="#SVGID_47_"  style="overflow:visible;"/>
			</clipPath>
			<rect x="164.5" y="271.9" class="st23" width="79.6" height="33.1"/>
		</g>
	</g>
	<g>
		<defs>
			<polygon id="SVGID_49_" points="200.3,270.7 239.5,251.5 231.6,247.7 200.3,263 187.4,256.6 187.4,264.3 			"/>
		</defs>
		<use xlink:href="#SVGID_49_"  style="overflow:visible;fill-rule:evenodd;clip-rule:evenodd;fill:#F78F39;"/>
		<clipPath id="SVGID_50_">
			<use xlink:href="#SVGID_49_"  style="overflow:visible;"/>
		</clipPath>
		<g class="st24">
			<defs>
				<rect id="SVGID_51_" x="0" y="0.6" width="360" height="640"/>
			</defs>
			<use xlink:href="#SVGID_51_"  style="overflow:visible;fill:#F78F39;"/>
			<clipPath id="SVGID_52_">
				<use xlink:href="#SVGID_51_"  style="overflow:visible;"/>
			</clipPath>
			<rect x="182.4" y="242.7" class="st25" width="62.1" height="33"/>
		</g>
	</g>
	<g>
		<defs>
			<path id="SVGID_53_" d="M141.8,268.6l16.2,12.1v-12.1h11.6c3.9,0,7.1-3.2,7.1-7.1v-32c0-3.9-3.2-7.1-7.1-7.1h-36.8
				c-3.9,0-7.1,3.2-7.1,7.1v32c0,3.9,3.2,7.1,7.1,7.1H141.8z M160.3,289.4L140,274.2h-7.1c-7,0-12.7-5.7-12.7-12.7v-32
				c0-7,5.7-12.7,12.7-12.7h36.8c3.4,0,6.5,1.3,9,3.7c2.4,2.4,3.7,5.6,3.7,9v32c0,7-5.7,12.7-12.7,12.7h-6.1v14.3L160.3,289.4z"/>
		</defs>
		<use xlink:href="#SVGID_53_"  style="overflow:visible;fill-rule:evenodd;clip-rule:evenodd;fill:#F78F39;"/>
		<clipPath id="SVGID_54_">
			<use xlink:href="#SVGID_53_"  style="overflow:visible;"/>
		</clipPath>
		<g class="st26">
			<defs>
				<rect id="SVGID_55_" x="0" y="0.6" width="360" height="640"/>
			</defs>
			<use xlink:href="#SVGID_55_"  style="overflow:visible;fill:#F78F39;"/>
			<clipPath id="SVGID_56_">
				<use xlink:href="#SVGID_55_"  style="overflow:visible;"/>
			</clipPath>
			<rect x="115.1" y="211.7" class="st27" width="72.2" height="82.7"/>
		</g>
	</g>
</g>
</svg>
