<?xml version="1.0" encoding="utf-8"?>
<!-- Generator: Adobe Illustrator 22.1.0, SVG Export Plug-In . SVG Version: 6.00 Build 0)  -->
<svg version="1.1" id="Camada_1" xmlns="http://www.w3.org/2000/svg" xmlns:xlink="http://www.w3.org/1999/xlink" x="0px" y="0px"
	 viewBox="0 0 60 75" style="enable-background:new 0 0 60 75;" xml:space="preserve">
<style type="text/css">
	.st0{fill:#58595B;}
</style>
<g>
	<g>
		<path class="st0" d="M44.1,50.7c3.8-4.1,6.1-9.6,6.1-15.5c0-12.7-10.3-23-23-23s-23,10.3-23,23s10.3,23,23,23
			c6,0,11.4-2.3,15.5-6.1l11.4,11.4c0.2,0.2,0.5,0.3,0.7,0.3s0.5-0.1,0.7-0.3c0.4-0.4,0.4-1,0-1.4L44.1,50.7z M27.2,56.2
			c-11.6,0-21-9.4-21-21s9.4-21,21-21s21,9.4,21,21C48.2,46.7,38.7,56.2,27.2,56.2z"/>
	</g>
</g>
</svg>
