<?xml version="1.0" encoding="utf-8"?>
<!-- Generator: Adobe Illustrator 16.0.0, SVG Export Plug-In . SVG Version: 6.00 Build 0)  -->
<!DOCTYPE svg PUBLIC "-//W3C//DTD SVG 1.1//EN" "http://www.w3.org/Graphics/SVG/1.1/DTD/svg11.dtd">
<svg version="1.1" id="Layer_1" xmlns="http://www.w3.org/2000/svg" xmlns:xlink="http://www.w3.org/1999/xlink" x="0px" y="0px"
	 width="93.09px" height="55.2px" viewBox="0 0 93.09 55.2" enable-background="new 0 0 93.09 55.2" xml:space="preserve">
<g>
	<defs>
		<rect id="SVGID_1_" width="93.09" height="55.2"/>
	</defs>
	<clipPath id="SVGID_2_">
		<use xlink:href="#SVGID_1_"  overflow="visible"/>
	</clipPath>
	<path clip-path="url(#SVGID_2_)" d="M76.038,28.601c0.5,0,1-0.2,1.399-0.5l15-13.9c0.801-0.7,0.9-2,0.101-2.8
		c-0.7-0.8-2-0.9-2.8-0.1l-14.5,13.3h-20.9v-4.9h21.7c0.5,0,1-0.2,1.399-0.5l15-13.9c0.601-0.6,0.801-1.4,0.5-2.2
		c-0.3-0.8-1-1.3-1.899-1.3H70.438c0-0.2,0-0.3-0.1-0.5c-0.3-0.8-1-1.3-1.9-1.3h-27.7c-0.5,0-1,0.2-1.4,0.5l-1.3,1.2h-21
		c-0.5,0-1,0.2-1.4,0.5l-15,13.9c-0.6,0.6-0.8,1.4-0.5,2.2c0.3,0.8,1,1.3,1.9,1.3h20.5v4.9h-20.5c-1.1,0-2,0.9-2,2c0,1.1,0.9,2,2,2
		h20.5v4.9h-20.5c-1.1,0-2,0.899-2,2c0,1.1,0.9,2,2,2h20.5V42.3h-20.5c-1.1,0-2,0.9-2,2c0,1.101,0.9,2,2,2h20.5v4.9h-20.5
		c-1.1,0-2,0.9-2,2s0.9,2,2,2h74c0.5,0,1-0.2,1.399-0.5l15-13.9c0.801-0.699,0.9-2,0.101-2.8c-0.7-0.8-2-0.899-2.8-0.1l-14.5,13.5
		h-20.9v-4.9h21.7c0.5,0,1-0.2,1.399-0.5l15-13.899c0.801-0.7,0.9-2,0.101-2.801c-0.7-0.8-2-0.899-2.8-0.1l-14.5,13.2h-20.9v-4.9
		h21.7c0.5,0,1-0.2,1.399-0.5l15-13.9c0.801-0.7,0.9-2,0.101-2.8c-0.7-0.8-2-0.9-2.8-0.1l-14.5,13.3h-20.9v-4.899H76.038
		 M75.238,15.6h-18.5l10.6-9.9h0.1h18.4L75.238,15.6z M17.838,5.8h16l-10.6,9.8h-16L17.838,5.8z M26.538,51.4V17.9l15-13.9h21.9
		l-12.5,11.6c-0.399,0.4-0.6,0.9-0.6,1.5v34.3H26.538z"/>
	<path clip-path="url(#SVGID_2_)" d="M40.038,33.2v-4.8c0.9,0.3,1.6,0.8,2.2,1.6l0.6,0.8l1.9-2.399l-0.4-0.5
		c-1.1-1.4-2.6-2.2-4.3-2.6v-2.4h-2.7v2.4c-2.8,0.4-4.7,2.5-4.7,5.2c0,3.4,2.5,4.4,4.7,5.101v5.6c-1.4-0.4-2.4-1.4-2.9-2l-0.6-0.8
		l-1.8,2.399l0.4,0.5c1.2,1.601,2.9,2.601,5,2.9v2.3h2.7v-2.3c3.5-0.6,4.8-3.2,4.8-5.5C44.838,35,42.038,33.8,40.038,33.2
		 M40.038,41.2v-4.7c1.3,0.601,1.8,1.2,1.8,2.3C41.838,39.4,41.638,40.7,40.038,41.2 M37.338,28.3v4c-1.3-0.5-1.7-1-1.7-1.899
		C35.738,29.4,36.338,28.601,37.338,28.3"/>
</g>
</svg>
