<?xml version="1.0" encoding="utf-8"?>
<!-- Generator: Adobe Illustrator 16.0.0, SVG Export Plug-In . SVG Version: 6.00 Build 0)  -->
<!DOCTYPE svg PUBLIC "-//W3C//DTD SVG 1.1//EN" "http://www.w3.org/Graphics/SVG/1.1/DTD/svg11.dtd">
<svg version="1.1" id="Layer_1" xmlns="http://www.w3.org/2000/svg" xmlns:xlink="http://www.w3.org/1999/xlink" x="0px" y="0px"
	 width="500px" height="500px" viewBox="0 0 500 500" enable-background="new 0 0 500 500" xml:space="preserve">
<path d="M357.811,313.59c-18.93,0-35.701,9.241-46.189,23.397l-114.496-68.692c1.659-5.377,2.569-11.076,2.569-16.997
	c0-5.921-0.895-11.619-2.569-16.997l114.495-68.693c10.488,14.157,27.26,23.399,46.188,23.399c31.696,0,57.504-25.792,57.504-57.504
	c0-31.711-25.789-57.503-57.502-57.503c-31.695,0-57.504,25.792-57.504,57.503c0,5.905,0.894,11.62,2.569,16.997l-114.497,68.708
	c-10.484-14.173-27.259-23.414-46.188-23.414c-31.697,0-57.504,25.792-57.504,57.504c0,31.714,25.792,57.504,57.503,57.504
	c18.928,0,35.703-9.241,46.188-23.397l114.496,68.692c-1.66,5.38-2.569,11.075-2.569,16.997c0,31.715,25.791,57.504,57.503,57.504
	c31.696,0,57.504-25.789,57.504-57.504C415.313,339.382,389.506,313.59,357.811,313.59z M357.811,93.184
	c21.131,0,38.334,17.19,38.334,38.335c0,21.147-17.187,38.337-38.334,38.337c-21.148,0-38.335-17.189-38.335-38.337
	C319.475,110.373,336.68,93.184,357.811,93.184z M142.19,289.635c-21.13,0-38.335-17.19-38.335-38.337
	c0-21.147,17.188-38.335,38.335-38.335c21.132,0,38.337,17.188,38.337,38.335C180.527,272.444,163.322,289.635,142.19,289.635z
	 M357.811,409.414c-21.131,0-38.335-17.19-38.335-38.335c0-21.147,17.187-38.338,38.335-38.338c21.147,0,38.334,17.19,38.334,38.338
	C396.145,392.225,378.941,409.414,357.811,409.414z"/>
</svg>
