<?xml version="1.0" encoding="utf-8"?>
<!-- Generator: Adobe Illustrator 22.1.0, SVG Export Plug-In . SVG Version: 6.00 Build 0)  -->
<svg version="1.1" id="Camada_1" xmlns="http://www.w3.org/2000/svg" xmlns:xlink="http://www.w3.org/1999/xlink" x="0px" y="0px"
	 viewBox="0 0 512 640" style="enable-background:new 0 0 512 640;" xml:space="preserve">
<g>
	<g>
		<g>
			<path d="M453,481.6h-40.8c-2.8,0-5-2.2-5-5v-344H152.4c-2.8,0-5-2.2-5-5V84.3c0-2.8,2.2-5,5-5H453c2.8,0,5,2.2,5,5v392.2
				C458,479.3,455.7,481.6,453,481.6z M417.2,471.6H448V89.3H157.4v33.3h254.8c2.8,0,5,2.2,5,5V471.6L417.2,471.6z"/>
		</g>
		<g>
			<path d="M412.2,524.9h-40.7c-2.8,0-5-2.2-5-5V251.2l-75.3-75.3H111.7c-2.8,0-5-2.2-5-5v-43.3c0-2.8,2.2-5,5-5h300.5
				c2.8,0,5,2.2,5,5v392.3C417.2,522.6,415,524.9,412.2,524.9z M376.5,514.9h30.7V132.6H116.7v33.3h176.6c1.3,0,2.6,0.5,3.5,1.5
				l78.2,78.2c0.9,0.9,1.5,2.2,1.5,3.5L376.5,514.9L376.5,514.9z"/>
		</g>
		<g>
			<path d="M371.5,568.2H70.9c-2.8,0-5-2.2-5-5V170.9c0-2.8,2.2-5,5-5h222.3c1.3,0,2.6,0.5,3.5,1.5l78.2,78.2
				c0.9,0.9,1.5,2.2,1.5,3.5v314C376.5,565.9,374.2,568.2,371.5,568.2z M75.9,558.2h290.5v-307l-75.3-75.3H75.9V558.2z"/>
		</g>
		<g>
			<path d="M371.5,254.1h-78.2c-2.8,0-5-2.2-5-5v-78.2c0-2,1.2-3.8,3.1-4.6s4-0.3,5.4,1.1l78.2,78.2c1.4,1.4,1.9,3.6,1.1,5.4
				S373.5,254.1,371.5,254.1z M298.3,244.1h61.1l-61.1-61.2V244.1z"/>
		</g>
		<g>
			<path d="M258.9,235.7h-149c-2.8,0-5-2.2-5-5s2.2-5,5-5h149c2.8,0,5,2.2,5,5S261.7,235.7,258.9,235.7z"/>
		</g>
		<g>
			<path d="M326.4,289.1H109.9c-2.8,0-5-2.2-5-5c0-2.8,2.2-5,5-5h216.5c2.8,0,5,2.2,5,5C331.4,286.9,329.1,289.1,326.4,289.1z"/>
		</g>
		<g>
			<path d="M326.4,342.6H109.9c-2.8,0-5-2.2-5-5s2.2-5,5-5h216.5c2.8,0,5,2.2,5,5S329.1,342.6,326.4,342.6z"/>
		</g>
		<g>
			<path d="M326.4,396.1H109.9c-2.8,0-5-2.2-5-5s2.2-5,5-5h216.5c2.8,0,5,2.2,5,5S329.1,396.1,326.4,396.1z"/>
		</g>
		<g>
			<path d="M326.4,449.6H109.9c-2.8,0-5-2.2-5-5s2.2-5,5-5h216.5c2.8,0,5,2.2,5,5S329.1,449.6,326.4,449.6z"/>
		</g>
		<g>
			<path d="M326.4,503.1H109.9c-2.8,0-5-2.2-5-5s2.2-5,5-5h216.5c2.8,0,5,2.2,5,5S329.1,503.1,326.4,503.1z"/>
		</g>
	</g>
</g>
</svg>
