<?xml version="1.0" encoding="utf-8"?>
<!-- Generator: Adobe Illustrator 22.1.0, SVG Export Plug-In . SVG Version: 6.00 Build 0)  -->
<svg version="1.1" id="Layer_1" xmlns="http://www.w3.org/2000/svg" xmlns:xlink="http://www.w3.org/1999/xlink" x="0px" y="0px"
	 viewBox="-396 274.3 48 48" style="enable-background:new -396 274.3 48 48;" xml:space="preserve">
<style type="text/css">
	.st0{fill:#606060;}
</style>
<path class="st0" d="M-372,274.1c-13.3,0-24,10.7-24,24c0,13.3,10.7,24,24,24s24-10.7,24-24C-348,284.9-358.7,274.1-372,274.1z
	 M-366.5,298.1h-3.6c0,5.7,0,12.7,0,12.7h-5.3c0,0,0-6.9,0-12.7h-2.5v-4.5h2.5v-2.9c0-2,0.9-5.3,5.3-5.3h3.9v4.4c0,0-2.3,0-2.8,0
	c-0.4,0-1.1,0.2-1.1,1.2v2.6h4L-366.5,298.1z"/>
</svg>
