<?xml version="1.0" encoding="utf-8"?>
<!-- Generator: Adobe Illustrator 22.1.0, SVG Export Plug-In . SVG Version: 6.00 Build 0)  -->
<svg version="1.1" id="Layer_1" xmlns="http://www.w3.org/2000/svg" xmlns:xlink="http://www.w3.org/1999/xlink" x="0px" y="0px"
	 viewBox="-255 334 100 125" style="enable-background:new -255 334 100 125;" xml:space="preserve">
<g transform="translate(0,-952.36218)">
	<path d="M-227.8,1310.4c-6.2,0-12.4,2.5-17.1,7.4c-9.4,9.9-9.4,25.7,0,35.6l38.5,40.3c0.8,0.8,2,0.8,2.8,0.1c0,0,0.1-0.1,0.1-0.1
		c12.8-13.4,25.7-26.9,38.5-40.3c9.4-9.9,9.4-25.7,0-35.6c-9.4-9.9-24.8-9.9-34.3,0l-5.7,5.9l-5.7-5.9
		C-215.4,1312.8-221.6,1310.4-227.8,1310.4z M-227.8,1314.3c5.1,0,10.3,2.1,14.3,6.2l7.1,7.5c0.8,0.8,2,0.8,2.8,0.1
		c0,0,0.1-0.1,0.1-0.1l7.1-7.4c8-8.3,20.5-8.3,28.5,0c8,8.3,8,21.7,0,30.1c-12.3,12.9-24.7,25.9-37,38.8l-37-38.8
		c-7.9-8.3-8-21.8,0-30.1C-238.1,1316.4-232.9,1314.3-227.8,1314.3L-227.8,1314.3z"/>
</g>
</svg>
