<?xml version="1.0" encoding="utf-8"?>
<!-- Generator: Adobe Illustrator 16.0.0, SVG Export Plug-In . SVG Version: 6.00 Build 0)  -->
<!DOCTYPE svg PUBLIC "-//W3C//DTD SVG 1.1//EN" "http://www.w3.org/Graphics/SVG/1.1/DTD/svg11.dtd">
<svg version="1.1" id="Camada_1" xmlns="http://www.w3.org/2000/svg" xmlns:xlink="http://www.w3.org/1999/xlink" x="0px" y="0px"
	 width="500px" height="500px" viewBox="0 0 500 500" enable-background="new 0 0 500 500" xml:space="preserve">
<g>
	<path d="M130,376h120c24.4,0,44-19.6,44-44V76c0-24.4-19.6-44-44-44H130c-24.4,0-44,19.6-44,44v256C86,356.4,105.6,376,130,376z
		 M94,76c0-20,16-36,36-36h120c20,0,36,16,36,36v256c0,20-16,36-36,36H130c-20,0-36-16-36-36V76z"/>
	<path d="M134,316h112c11.2,0,20-8.8,20-20V88c0-11.2-8.8-20-20-20H134c-11.2,0-20,8.8-20,20v208C114,307.2,122.8,316,134,316z
		 M122,88c0-6.8,5.2-12,12-12h112c6.8,0,12,5.2,12,12v208c0,6.8-5.2,12-12,12H134c-6.8,0-12-5.2-12-12V88z"/>
	<path d="M189.2,324c-9.6,0-17.6,8-17.6,17.6c0,9.601,8,17.601,17.6,17.601c9.6,0,17.6-8,17.6-17.601C206.8,332,199.2,324,189.2,324
		z M189.2,351.6c-5.2,0-9.6-4.399-9.6-9.6s4.4-9.6,9.6-9.6c5.2,0,9.6,4.399,9.6,9.6S194.4,351.6,189.2,351.6z"/>
	<path d="M317.6,194.8c1.2,0,2-0.4,2.801-1.2c32-31.2,32.8-82.4,1.6-114.4c-1.6-1.6-4-1.6-5.6,0c-1.601,1.6-1.601,4,0,5.6
		c28,28.8,27.199,75.2-1.601,103.2c-1.6,1.6-1.6,4,0,5.6C315.6,194.4,316.8,194.8,317.6,194.8z"/>
	<path d="M345.2,217.6c1.2,0,2-0.4,2.8-1.2c21.6-21.2,34-49.2,34.4-79.2c0.399-30-10.801-58.8-32-80.4c-1.601-1.6-4-1.6-5.601,0
		c-1.6,1.6-1.6,4,0,5.6c19.601,20,30,46.8,29.601,74.8c-0.4,28-11.601,54-32,73.6c-1.601,1.6-1.601,4,0,5.6
		C343.2,217.2,344.4,217.6,345.2,217.6z"/>
	<path d="M369.2,22c-1.601,1.6-1.601,4,0,5.6c28.8,29.6,44,68.4,43.6,109.2c-0.399,40.8-17.2,79.6-46.8,108c-1.6,1.6-1.6,4,0,5.6
		c0.8,0.8,2,1.2,2.8,1.2c1.2,0,2-0.399,2.8-1.2c31.2-30,48.4-70.4,49.2-113.6c0.8-43.2-15.6-84-45.6-115.2
		C373.6,20.4,370.8,20.4,369.2,22z"/>
</g>
</svg>
