<?xml version="1.0" encoding="utf-8"?>
<!-- Generator: Adobe Illustrator 22.1.0, SVG Export Plug-In . SVG Version: 6.00 Build 0)  -->
<svg version="1.1" id="Layer_1" xmlns="http://www.w3.org/2000/svg" xmlns:xlink="http://www.w3.org/1999/xlink" x="0px" y="0px"
	 viewBox="-249 360.9 96 120" style="enable-background:new -249 360.9 96 120;" xml:space="preserve">
<style type="text/css">
	.st0{fill:#58595B;stroke:#58595B;stroke-miterlimit:10;}
</style>
<g>
	<g>
		<g>
			<path class="st0" d="M-201,444c-0.3,0-0.6-0.1-0.8-0.4l-20.5-26.8c-7.3-9.6-7.3-22.9,0-32.5c5.1-6.7,12.9-10.5,21.3-10.5
				s16.2,3.8,21.3,10.5c7.3,9.6,7.3,22.9,0,32.5l-20.5,26.8C-200.4,443.8-200.7,444-201,444z M-201,375.8c-7.8,0-15,3.5-19.7,9.7
				c-6.8,8.9-6.8,21.2,0,30.1l19.7,25.7l19.7-25.7c6.8-8.9,6.8-21.2,0-30.1C-186,379.4-193.2,375.8-201,375.8z"/>
		</g>
		<g>
			<path class="st0" d="M-201,416.6c-8.8,0-16-7.2-16-16c0-8.8,7.2-16,16-16s16,7.2,16,16C-185,409.4-192.2,416.6-201,416.6z
				 M-201,386.6c-7.7,0-14,6.3-14,14c0,7.7,6.3,14,14,14s14-6.3,14-14C-187,392.9-193.3,386.6-201,386.6z"/>
		</g>
	</g>
</g>
</svg>
