<?xml version="1.0" encoding="utf-8"?>
<!-- Generator: Adobe Illustrator 22.1.0, SVG Export Plug-In . SVG Version: 6.00 Build 0)  -->
<svg version="1.1" id="Camada_1" xmlns="http://www.w3.org/2000/svg" xmlns:xlink="http://www.w3.org/1999/xlink" x="0px" y="0px"
	 viewBox="0 0 100 125" style="enable-background:new 0 0 100 125;" xml:space="preserve">
<g>
	<path d="M50,5.9c-9.4,0-18.4,3.9-24.8,10.7c-13.6,14.3-13.6,37.4,0,51.6L50,94.1l24.8-25.9c13.6-14.2,13.6-37.3,0-51.6
		C68.4,9.8,59.4,5.9,50,5.9z M73.4,66.8L50,91.2L26.6,66.8c-12.9-13.4-12.9-35.3,0-48.8C38.8,5.1,59.2,4.5,72.1,16.7
		c0.4,0.4,0.9,0.8,1.3,1.3C86.3,31.5,86.3,53.4,73.4,66.8z"/>
	<path d="M50,22.5c-10.5,0-19.1,8.6-19.1,19.1S39.5,60.7,50,60.7s19.1-8.6,19.1-19.1l0,0C69,31.1,60.5,22.6,50,22.5z M50,58.7
		c-9.4,0-17.1-7.7-17.1-17.1S40.6,24.5,50,24.5s17.1,7.7,17.1,17.1C67,51,59.4,58.6,50,58.7z"/>
</g>
</svg>
