<?xml version="1.0" encoding="utf-8"?>
<!-- Generator: Adobe Illustrator 16.0.0, SVG Export Plug-In . SVG Version: 6.00 Build 0)  -->
<!DOCTYPE svg PUBLIC "-//W3C//DTD SVG 1.1//EN" "http://www.w3.org/Graphics/SVG/1.1/DTD/svg11.dtd">
<svg version="1.1" id="Camada_1" xmlns="http://www.w3.org/2000/svg" xmlns:xlink="http://www.w3.org/1999/xlink" x="0px" y="0px"
	 width="287.6px" height="289.601px" viewBox="106.4 55.6 287.6 289.601" enable-background="new 106.4 55.6 287.6 289.601"
	 xml:space="preserve">
<g>
	<path d="M373.2,214.8c11.2-0.4,20.8-10,20.8-21.6V176c0-2.4-0.4-5.2-1.6-7.2l-29.2-63.2c-0.8-1.6-2.8-2.4-4.8-1.6
		c-1.602,0.8-2.4,2.8-1.602,4.8L386,172c0.8,1.2,0.8,2.8,0.8,4.4v17.2c0,8-6,14.4-13.6,14.4c-4,0-7.2-1.2-10-4s-4-6.4-4-10
		c0-2-1.602-3.6-3.602-3.6S352,192,352,194c0,7.6-6.4,14-14,14s-14-6.4-14-14c0-2-1.6-3.6-3.6-3.6S316.8,192,316.8,194
		c0,7.6-6.398,14-14,14c-7.6,0-14-6.4-14-14c0-2-1.6-3.6-3.6-3.6S281.6,192,281.6,194c0,7.6-6.398,14-14,14c-7.6,0-14-6.4-14-14
		c0-2-1.6-3.6-3.6-3.6s-3.6,1.6-3.6,3.6c0,7.6-6.4,14-14,14s-14-6.4-14-14c0-2-1.6-3.6-3.6-3.6s-3.6,1.6-3.6,3.6c0,7.6-6.4,14-14,14
		c-7.6,0-14-6.4-14-14c0-2-1.6-3.6-3.6-3.6S176,192,176,194c0,7.6-6.4,14-14,14s-14-6.4-14-14c0-2-1.6-3.6-3.6-3.6s-3.6,1.6-3.6,3.6
		c0,3.6-1.6,7.2-4,10c-2.8,2.8-6.4,4-10,4c-7.6,0-13.6-6.8-13.6-14.4V176c0-1.6,0.4-2.8,0.8-4.4l34-76c0-0.4,0.4-0.8,0.4-1.6V66
		c0-2,1.6-3.6,3.6-3.6h196.4c2,0,3.6,1.6,3.6,3.6v24.4H160.8c-2,0-3.6,1.6-3.6,3.6s1.6,3.6,3.6,3.6h194.4c2,0,3.6-1.6,3.6-3.6V66
		c0-5.6-4.8-10.4-10.398-10.4H152c-5.6,0-10.4,4.8-10.4,10.4v27.2L108,168.4c-1.2,2.4-1.6,4.8-1.6,7.2v17.6
		c0,11.6,9.2,21.2,20.8,21.6c5.6,0,10.4-2,14.4-5.2V338H110c-2,0-3.6,1.6-3.6,3.6s1.6,3.602,3.6,3.602h53.6h52H390
		c2,0,3.6-1.602,3.6-3.602S392,338,390,338h-31.6V209.2C362.4,212.8,367.6,214.8,373.2,214.8z M167.2,337.6v-93.2h45.2v93.2H167.2z
		 M219.2,337.6v-96.8c0-2-1.6-3.6-3.6-3.6h-52c-2,0-3.6,1.6-3.6,3.6v96.8h-11.6V209.2c3.6,3.2,8.8,5.2,14,5.2
		c7.2,0,13.6-3.6,17.6-9.6c3.6,5.6,10.4,9.6,17.6,9.6c7.2,0,13.6-3.6,17.6-9.6c3.6,5.6,10.4,9.6,17.6,9.6c7.2,0,13.6-3.6,17.6-9.6
		c3.6,5.6,10.4,9.6,17.6,9.6s13.6-3.6,17.6-9.6c3.602,5.6,10.4,9.6,17.602,9.6s13.6-3.6,17.6-9.6c3.602,5.6,10.4,9.6,17.602,9.6
		c5.198,0,10.398-2,14-5.2V337.6H219.2z"/>
	<path d="M124,172.8c0,2,1.6,3.6,3.6,3.6h244.8c2,0,3.6-1.6,3.6-3.6s-1.6-3.6-3.6-3.6H127.6C125.6,169.2,124,170.8,124,172.8z"/>
	<path d="M336.4,237.2H236c-2,0-3.6,1.6-3.6,3.6V302.4c0,2,1.6,3.6,3.6,3.6h100.4c2,0,3.6-1.6,3.6-3.6V240.8
		C340,238.8,338.4,237.2,336.4,237.2z M332.8,298.8h-93.2v-54.4h93.2V298.8z"/>
	<path d="M265.6,291.6c0.801,0.801,1.602,1.2,2.4,1.2s1.6-0.399,2.4-1.2L306,256c1.2-1.2,1.2-3.6,0-4.8s-3.6-1.2-4.8,0L265.6,286.8
		C264.4,288,264.4,290.4,265.6,291.6z"/>
	<path d="M260.8,279.6c0.8,0,1.601-0.398,2.4-1.199l15.2-15.199c1.199-1.2,1.199-3.602,0-4.801c-1.2-1.199-3.602-1.199-4.801,0
		L258.4,273.6c-1.2,1.2-1.2,3.602,0,4.801C258.8,279.2,260,279.6,260.8,279.6z"/>
	<path d="M292.4,286c0.8,0.8,1.6,1.2,2.398,1.2s1.602-0.4,2.4-1.2l15.2-15.2c1.198-1.2,1.198-3.6,0-4.8c-1.2-1.2-3.602-1.2-4.802,0
		L292.4,281.2C291.2,282.4,291.2,284.8,292.4,286z"/>
</g>
</svg>
