<?xml version="1.0" encoding="utf-8"?>
<!-- Generator: Adobe Illustrator 22.1.0, SVG Export Plug-In . SVG Version: 6.00 Build 0)  -->
<svg version="1.1" id="Layer_1" xmlns="http://www.w3.org/2000/svg" xmlns:xlink="http://www.w3.org/1999/xlink" x="0px" y="0px"
	 viewBox="0 0 170 141.6" style="enable-background:new 0 0 170 141.6;" xml:space="preserve">
<style type="text/css">
	.st0{clip-path:url(#SVGID_2_);}
	.st1{clip-path:url(#SVGID_2_);fill:#606060;}
	.st2{fill:#606060;}
</style>
<g>
	<defs>
		<rect id="SVGID_1_" x="8.3" y="6.9" width="153.4" height="127.8"/>
	</defs>
	<clipPath id="SVGID_2_">
		<use xlink:href="#SVGID_1_"  style="overflow:visible;"/>
	</clipPath>
	<path class="st0" d="M56.6,65L56.6,65c0.1-0.1,0.3-0.1,0.5-0.1l0.7,0l0,0l-1,0L56.6,65z"/>
	<path class="st0" d="M54.4,67.7L54.4,67.7l1.5-1.8c0,0,0,0,0,0l0,0L54.4,67.7L54.4,67.7z"/>
	<path class="st1" d="M131,103.6c-0.3-0.3-0.7-0.4-1-0.3l-11.2,1.2c-0.7,0.1-1.2,0.7-1.2,1.4l0.1,9.8c0,0.4,0.2,0.7,0.5,1
		c0.2,0.2,0.6,0.3,0.9,0.3c0,0,0.1,0,0.1,0l11.2-1.2c0.7-0.1,1.2-0.7,1.2-1.4l-0.1-9.8C131.4,104.2,131.3,103.9,131,103.6
		 M120.3,114.2l-0.1-7.1l8.5-0.9l0.1,7.1L120.3,114.2z"/>
	<path class="st1" d="M112.7,105.4c-0.3-0.3-0.7-0.4-1-0.3l-11.2,1.2c-0.7,0.1-1.2,0.7-1.2,1.4l0.1,23.2c0,0.4,0.2,0.7,0.4,1
		c0.3,0.2,0.6,0.3,0.9,0.3c0,0,0.1,0,0.1,0l11.2-1.2c0.7-0.1,1.2-0.7,1.2-1.4l-0.1-23.2C113.2,106,113,105.6,112.7,105.4 M102,131
		l-0.1-22.2l8.5-0.9l0.1,22.2L102,131z"/>
	<g class="st0">
		<path class="st2" d="M146.7,93.4c1.8-5.8,2.7-11.8,2.7-17.9c0-34-27.7-61.7-61.7-61.7c-6.2,0-12.3,0.9-18.1,2.7
			c-4.9-5.8-12.2-9.6-20.4-9.6c-14.7,0-26.6,11.9-26.6,26.6c0,7.4,3,14.1,7.9,18.9c-3,7.3-4.5,15.1-4.5,23.1
			c0,5.9,0.8,11.8,2.5,17.4c-12,6.3-19.1,14.4-19.9,23c-0.2,0.2-0.3,0.5-0.3,0.8c0,3.1,0.8,6.1,2.3,9c0.2,0.5,0.7,0.7,1.2,0.7
			c0.1,0,0.2,0,0.3,0c6.7-1.5,15.9-2.2,24.7-2.9l1.6-0.1l47.6,11.2c0.1,0.1,0.3,0.1,0.4,0.1l1.5-0.1l48.2-5.1
			c4.9,0.9,8.6,1.8,12.9,2.9c1.1,0.3,2.3,0.6,3.5,0.9c0.1,0,0.2,0,0.3,0c0.3,0,0.7-0.1,0.9-0.4c5.2-5,7.8-10.5,7.8-16.2
			C161.7,110.1,159.1,100.7,146.7,93.4z M25.2,33.5C25.2,20.4,36,9.6,49.1,9.6c7.7,0,14.6,3.7,19,9.4c0.3,0.4,0.6,0.8,0.9,1.3
			c0.1,0.2,0.2,0.3,0.3,0.5c0.2,0.4,0.5,0.7,0.7,1.1c0.1,0.2,0.3,0.5,0.4,0.7c0.2,0.3,0.3,0.6,0.5,0.9c0.1,0.2,0.2,0.4,0.3,0.7
			c0.2,0.4,0.3,0.8,0.5,1.2c0.1,0.2,0.2,0.5,0.2,0.7c0.1,0.4,0.2,0.7,0.3,1.1c0.1,0.3,0.1,0.6,0.2,0.8c0.1,0.4,0.2,0.7,0.2,1.1
			c0,0.2,0.1,0.4,0.1,0.6c0.1,0.5,0.1,1,0.2,1.6c0,0.1,0,0.3,0,0.4c0,0.6,0.1,1.1,0.1,1.7c0,0,0,0,0,0c0,13.2-10.7,23.9-23.9,23.9
			c-0.4,0-0.8,0-1.2,0c-0.1,0-0.2,0-0.3,0c-0.3,0-0.6,0-0.8-0.1c-0.1,0-0.3,0-0.4-0.1c-0.2,0-0.5-0.1-0.7-0.1
			c-0.2,0-0.3-0.1-0.5-0.1c-0.2,0-0.5-0.1-0.7-0.1c-0.2,0-0.3-0.1-0.5-0.1c-0.2-0.1-0.5-0.1-0.7-0.2c-0.1,0-0.3-0.1-0.4-0.1
			c-0.2-0.1-0.5-0.1-0.7-0.2c-0.1,0-0.2-0.1-0.4-0.1c-0.3-0.1-0.5-0.2-0.8-0.3c-0.1,0-0.2-0.1-0.3-0.1c-0.3-0.1-0.6-0.2-0.9-0.3
			c-0.1,0-0.1,0-0.2-0.1c-0.3-0.1-0.6-0.3-0.9-0.4c0,0,0,0-0.1,0C30.8,51.2,25.2,43,25.2,33.5z M32.6,54.3c0.1,0.1,0.3,0.2,0.4,0.3
			c0.4,0.3,0.7,0.6,1.1,0.8c0.2,0.2,0.5,0.3,0.7,0.5c0.4,0.2,0.7,0.5,1.1,0.7c0.2,0.1,0.4,0.2,0.6,0.3c0.5,0.3,1,0.5,1.5,0.8
			c0.2,0.1,0.4,0.2,0.6,0.3c0.5,0.2,1.1,0.5,1.6,0.7c0.1,0.1,0.3,0.1,0.4,0.1c0.6,0.2,1.2,0.4,1.8,0.5c0,0,0.1,0,0.1,0
			c0.6,0.2,1.3,0.3,1.9,0.4c0.1,0,0.2,0,0.4,0.1c0.6,0.1,1.3,0.2,1.9,0.2c0.1,0,0.3,0,0.4,0c0.7,0.1,1.3,0.1,2,0.1c0,0,0,0,0,0
			c14.7,0,26.6-11.9,26.6-26.6c0,0,0,0,0,0c0-0.6,0-1.1-0.1-1.7c0-0.2,0-0.4,0-0.6c0-0.4-0.1-0.8-0.1-1.2c0-0.2,0-0.4-0.1-0.6
			c-0.1-0.5-0.2-0.9-0.3-1.4c-0.1-0.3-0.1-0.6-0.2-0.8c-0.1-0.2-0.1-0.5-0.2-0.7c-0.1-0.5-0.3-1-0.5-1.6c-0.1-0.2-0.1-0.4-0.2-0.6
			c-0.1-0.3-0.2-0.6-0.4-0.9c-0.1-0.2-0.2-0.4-0.3-0.6c-0.2-0.4-0.4-0.8-0.6-1.3c-0.1-0.3-0.3-0.6-0.4-0.8c-0.1-0.2-0.3-0.5-0.4-0.7
			c-0.2-0.3-0.3-0.6-0.5-0.8c-0.1-0.1-0.2-0.3-0.3-0.4c5.3-1.5,10.8-2.3,16.4-2.3c32.5,0,59,26.5,59,59c0,5.4-0.7,10.8-2.2,15.9
			l-22.1-22.5l-6.9-7c-0.1-0.1-0.3-0.2-0.5-0.3c-0.2-0.1-0.4-0.1-0.6-0.1L91,62.9l-33.2,1.9h0l-0.7,0c-0.2,0-0.3,0.1-0.5,0.1
			c-0.3,0.1-0.6,0.4-0.7,0.7c0,0.1,0,0.1,0,0.2l0,0c0,0,0,0,0,0l-1.5,1.8l-17,20.9c-2.3,0.9-4.5,1.9-6.5,2.9
			c-1.5-5.2-2.2-10.6-2.2-16.1C28.7,68.2,30,61.1,32.6,54.3z M37.2,120.8l-0.6,0c-8.5,0.7-17.3,1.4-24.1,2.8
			c-0.8-1.8-1.3-3.6-1.5-5.5c0.1-0.2,0.1-0.4,0.1-0.6c0-9,8-17.6,22.2-24l-4,4.9c-0.3,0.4-0.4,1-0.2,1.4c0.2,0.5,0.7,0.8,1.2,0.8h0
			l6.8,0V120.8z M37.2,96.3v1.5l-3.9,0l18.9-23.3l5.1-6.3l1.4,1.4L37.2,96.3z M85.3,131.6l-45.3-10.7V97.3l20.6-25.5l24.7,24.1
			L85.3,131.6z M134.9,126.9L88,131.8l0-33.3l1.3,1.3c0.1,0.1,0.1,0.1,0.2,0.2c0,0,0,0,0.1,0c0.1,0,0.1,0.1,0.2,0.1c0,0,0.1,0,0.1,0
			c0.1,0,0.1,0,0.2,0c0,0,0.1,0,0.1,0c0,0,0.1,0,0.1,0c0,0,0.1,0,0.1,0l44.6-3.7V126.9z M136.1,93.7L136.1,93.7l-43.2,3.6l-2.2,0.2
			L88,94.8v0l-0.3-0.3l-0.1-0.1c0,0,0,0,0,0l0,0l-27.2-27l33.1-1.9l20.5-1.2l7.2,7.4l21.2,21.6L136.1,93.7z M152.5,130.4
			c-1-0.2-1.9-0.5-2.8-0.7c-4.1-1-7.6-1.9-12.2-2.7V96.3l7.6-0.6c9,5.3,13.8,12.6,13.8,21.1C159,121.5,156.8,126.1,152.5,130.4z"/>
		<polygon class="st2" points="56.6,65 56.6,65 56.6,65 		"/>
	</g>
</g>
</svg>
