<?xml version="1.0" encoding="utf-8"?>
<!-- Generator: Adobe Illustrator 16.0.0, SVG Export Plug-In . SVG Version: 6.00 Build 0)  -->
<!DOCTYPE svg PUBLIC "-//W3C//DTD SVG 1.1//EN" "http://www.w3.org/Graphics/SVG/1.1/DTD/svg11.dtd">
<svg version="1.1" id="Layer_1" xmlns="http://www.w3.org/2000/svg" xmlns:xlink="http://www.w3.org/1999/xlink" x="0px" y="0px"
	 width="500px" height="500px" viewBox="0 0 500 500" enable-background="new 0 0 500 500" xml:space="preserve">
<path d="M232.934,209.345l74.014,36.411l74.015-36.411l18.529,9.103l-92.544,45.514l-92.544-45.514L232.934,209.345z
	 M382.26,243.913l-74.013,36.412l-74.014-36.412l-18.531,9.104l92.544,45.512l92.544-45.512L382.26,243.913z M275,63.269
	l31.197-14.955l62.25,30.343l-62.437,30.342L275,94.045v15.062l31.197,14.955l92.921-45.513L306.76,33.034l-32.404,15.714
	c0.869,2.384,0.646,4.985,0.646,7.586L275,63.269L275,63.269z M307.271,192.548l92.544-45.512l-18.53-9.104l-74.014,36.412
	l-32.512-15.93c-2.167,5.418-6.392,9.861-11.699,12.354L307.271,192.548z M399.237,182.362l-18.819-9.103l-73.629,36.411
	L235,174.126v18.206l71.789,35.543L399.237,182.362z M306.414,140.317L275,125.254v18.204l31.414,15.063l92.918-45.405
	l-18.717-9.104L306.414,140.317z M126,332v52.896c0,1.191,1.289,2.275,2.265,3.25c0.866,0.977,2.377,1.41,3.678,1.41
	c1.193,0,1.975-0.435,2.95-1.41c0.975-0.865,1.108-1.949,1.108-3.25v-36.412c0-2.385,1.164-4.551,2.14-6.719
	c1.084-2.492,2.859-4.658,4.701-6.607c1.842-1.95,4.139-3.469,6.632-4.66c2.382-1.191,5.047-1.736,7.865-1.736
	c2.818,0,5.451,0.545,7.836,1.52c2.492,0.976,4.565,2.385,6.408,4.227c1.842,1.732,3.817,4.012,4.901,6.501
	c1.083,2.603,2.517,5.31,2.517,8.235v35.438c0,1.19-0.015,2.274,0.959,3.25c0.866,0.976,1.726,1.409,3.027,1.409
	c1.19,0,2.453-0.435,3.428-1.409c0.975-0.867,1.586-1.949,1.586-3.25v-35.979c0-2.707,0.47-5.2,1.444-7.477
	c1.084-2.492,2.455-4.553,4.297-6.502c1.842-1.951,3.936-3.359,6.429-4.443c2.385-1.084,5.058-1.624,7.875-1.624
	s5.401,0.54,7.893,1.624c2.384,1.084,4.542,2.6,6.384,4.443c1.843,1.844,3.109,4.01,4.193,6.502c1.084,2.491,1.485,5.2,1.485,8.018
	v35.438c0,1.19,0.57,2.274,1.546,3.25c0.866,0.976,2.019,1.409,3.319,1.409c1.193,0,2.514-0.435,3.488-1.409
	c0.975-0.867,1.647-1.949,1.647-3.25v-35.438c0-4.118-0.746-8.018-2.262-11.7c-1.518-3.688-3.787-6.938-6.496-9.646
	c-2.709-2.711-5.902-4.879-9.588-6.502c-3.575-1.625-7.501-2.383-11.619-2.383c-5.419,0-10.418,1.299-14.968,3.791
	c-4.661,2.493-8.242,5.854-10.951,10.076c-2.817-4.224-6.289-7.583-10.515-10.076c-4.226-2.492-8.887-3.791-14.197-3.791
	c-4.01,0-8.427,0.864-12.112,2.6c-3.684,1.842-7.292,4.117-9.292,6.935v-1.3c0-1.191,0.081-2.566-0.894-3.542
	c-0.866-0.979-1.436-1.704-2.736-1.704h-8.561c-1.192,0-2.275,0.725-3.25,1.704c-0.976,0.864-1.41,2.204-1.41,3.396
	c0,1.192,0.434,2.397,1.41,3.373c0.867,0.976,1.95,1.527,3.25,1.527H126V332z M395.372,322h-8.562c-1.191,0-2.351,0.725-3.324,1.704
	c-0.976,0.864-1.486,2.241-1.486,3.542v32.074c0,2.82-0.467,5.527-1.551,8.021c-1.08,2.492-2.563,4.659-4.404,6.501
	c-1.84,1.843-3.988,3.251-6.479,4.335c-2.494,1.084-5.193,1.624-8.014,1.624c-2.817,0-5.412-0.54-7.904-1.624
	c-2.49-1.084-4.55-2.492-6.498-4.335c-1.95-1.842-3.4-4.009-4.481-6.501c-1.086-2.492-1.667-5.201-1.667-8.021v-32.074
	c0-1.191-0.393-2.566-1.368-3.542c-0.866-0.979-1.909-1.704-3.211-1.704h-8.56c-1.192,0-2.276,0.725-3.251,1.704
	c-0.977,0.864-1.409,2.204-1.409,3.396c0,1.192,0.434,2.397,1.409,3.373c0.865,0.976,1.949,1.527,3.251,1.527H333v27.215
	c0,4.225,0.139,8.127,1.659,11.703c1.516,3.686,3.373,6.828,6.08,9.536c2.712,2.707,5.697,4.875,9.382,6.501
	c3.58,1.627,7.399,2.385,11.519,2.385c4.117,0,7.873-0.758,11.558-2.385c3.686-1.626,6.807-3.794,9.517-6.501
	c2.708-2.708,5.131-5.851,6.648-9.536c1.625-3.576,2.639-7.479,2.639-11.597V332h3.372c1.193,0,2.275-0.479,3.251-1.455
	c0.976-0.865,1.41-2.083,1.41-3.273c0-1.192-0.436-2.582-1.41-3.558C397.757,322.738,396.674,322,395.372,322z M194.789,398
	c-0.867,0-1.842,0.384-2.709,0.708c-3.577,1.301-5.853,3.824-7.261,7.185c-3.577,8.451-7.152,16.863-10.728,25.315
	c-0.326,0.758-0.759,1.604-1.41,3.015c-0.758-4.335-1.517-7.92-2.167-11.604c-0.975-5.093-1.95-10.032-2.818-15.235
	c-0.866-4.875-3.358-9.382-8.452-9.382H130.42c-0.759,8-1.518,13.604-2.384,20.431c-1.952,15.169-3.722,30.262-5.672,45.438
	c-0.109,0.646-0.364,1.22-0.364,1.87v1.841c4,0,9.466,0.326,14.126-0.105c5.958-0.544,10.151-4.77,11.018-10.729
	c0.975-5.743,1.499-11.191,2.258-16.937c0.324-3.032,0.741-6.807,1.175-8.807h0.433c2.384,12,4.659,24.519,7.044,37.091
	c7.043,0,13.762-0.312,20.481-0.202c1.733,0.109,2.492-0.643,3.142-2.157c4.551-11.159,9.319-22.375,13.979-33.431
	c0.325-0.758,0.65-1.541,0.975-2.299c0.326,0.648,0.326,1.181,0.218,1.721c-0.868,8.235-1.951,16.357-2.818,24.593
	c-0.541,5.311,2.276,10.074,7.261,10.833c4.876,0.651,9.969,0.108,14.954,0.108c0-0.217,0.108-0.437,0.108-0.652
	c1.41-11.487,2.927-22.927,4.334-34.411c1.41-11.485,2.818-22.192,4.227-34.192C214.836,398,204.758,398,194.789,398z
	 M299.035,439.944c1.627-1.624,3.253-3.359,4.445-5.31c4.983-8.019,6.283-16.47,1.732-25.139
	c-4.443-8.454-11.923-11.657-21.24-11.546c-17.013,0.108-34.026,0.05-51.039,0.05h-2.926c-2.927,24-5.743,46.439-8.669,69.844
	c4.443,0,8.669,0.193,12.895-0.022c6.068-0.323,11.379-5.213,12.246-11.282c1.192-8.019,2.059-16.154,3.142-24.281
	c0.542-4.55,1.192-9.104,1.733-13.871c10.514,0,20.807-0.111,31.317-0.001c2.384,0,4.116,1.919,4.445,4.409
	c0.646,4.443-2.819,8.206-7.479,8.206H257.1c-0.76,0-1.41,0.246-2.492,0.354c8.236,9.972,16.037,19.736,23.947,29.381
	c7.911,10.189,26.333,7.106,31.534,7.106c0.651,0,1.192-0.076,2.167-0.184c-6.393-7.91-12.568-15.59-18.748-23.177
	C295.459,442.857,297.411,441.571,299.035,439.944z M379.227,399.523c-1.624-0.104-2.492,0.543-3.252,1.953
	c-7.585,14.195-15.278,28.282-22.973,42.479c-0.326,0.651-0.76,1.3-1.301,2.167c-0.436-1.192-0.758-1.95-1.084-2.708
	c-4.334-11.597-8.561-23.082-12.786-34.569c-1.952-5.31-5.744-8.778-11.379-9.211c-5.745-0.434-11.378-0.11-17.447-0.11
	c0.326,0.979,0.544,1.734,0.979,2.278c3.684,10.078,7.364,20.264,11.159,30.342c3.143,8.67,6.396,17.446,9.645,26.115
	c2.167,5.854,6.07,9.753,12.354,10.945c11.161,2.167,20.153-2.062,25.682-12.245c9.972-18.423,19.939-36.844,29.909-55.268
	c0.325-0.649,0.648-1.19,1.084-2.168C392.662,399.523,385.945,399.635,379.227,399.523z M370.558,400h-30.016
	c4.006,10,8.017,21.564,12.242,32.727C358.855,421.564,364.599,410,370.558,400z M257.1,353c-0.107,0-0.107,1.969-0.107,2.836
	c0,3.793,0.758,7.216,2.167,10.575c1.407,3.358,3.358,6.315,5.852,8.81c2.491,2.493,5.417,4.459,8.776,5.868
	c3.359,1.406,6.938,2.175,10.623,2.175c3.791,0,7.261-0.756,10.619-2.162c3.359-1.41,6.292-3.356,8.782-5.851
	c1.301-1.302,2.282-2.493,2.933-3.358c0.435-0.76,0.988-1.408,1.748-1.951c0.76-0.541,1.546-0.864,2.521-0.864
	c1.298,0,2.521,0.432,3.387,1.407c0.976,0.978,1.602,2.059,1.602,3.25v0.543c0,1.734-2.142,4.228-5.502,7.587
	c-3.359,3.358-7.409,5.961-11.854,7.911c-4.441,1.949-9.23,2.925-14.324,2.925c-5.092,0-9.871-0.976-14.313-2.925
	c-4.442-1.95-8.351-4.553-11.71-7.911c-3.359-3.359-5.963-7.261-7.914-11.706c-1.95-4.439-2.928-9.209-2.928-14.303
	c0-5.092,0.975-9.859,2.926-14.306c1.951-4.44,4.551-8.342,7.909-11.702c3.36-3.358,7.262-5.959,11.705-7.908
	c4.442-1.949,9.211-2.924,14.304-2.924c5.094,0,9.859,0.979,14.304,2.93s8.346,4.559,11.704,7.918
	c3.359,3.359,5.961,7.273,7.803,11.714c1.083,2.711,1.734,4.69,1.841,5.665c0.436,2.168,0.218,3.609-0.758,4.479
	c-0.975,0.863-2.166,1.279-3.794,1.279H257.1L257.1,353z M259.699,344h49.092c-1.304-3-3.037-5.234-5.096-7.402
	c-2.493-2.49-5.418-4.524-8.777-5.935c-3.359-1.409-6.936-2.188-10.619-2.188c-3.794,0-7.26,0.754-10.619,2.164
	c-3.359,1.408-6.283,3.478-8.779,5.967C262.732,338.771,261,341,259.699,344z M117,136.632V60.993C117,44.414,130.854,32,147.433,32
	h87.126c8.019,0,14.708,2.576,20.451,8.211c5.742,5.744,7.99,12.654,7.99,20.674v75.638C263,153.104,251.031,167,234.45,167H222
	v33.459l-8.566,2.505L164.338,167h-16.906C130.854,167,117,153.211,117,136.632z M132,136.632c0,9.32,6.114,17.368,15.433,17.368
	h21.348L207,182.253V154h27.559c9.319,0,17.441-8.048,17.441-17.368V60.993C252,51.673,243.878,44,234.559,44h-87.126
	C138.114,44,132,51.673,132,60.993V136.632z"/>
</svg>
