<?xml version="1.0" encoding="utf-8"?>
<!-- Generator: Adobe Illustrator 16.0.0, SVG Export Plug-In . SVG Version: 6.00 Build 0)  -->
<!DOCTYPE svg PUBLIC "-//W3C//DTD SVG 1.1//EN" "http://www.w3.org/Graphics/SVG/1.1/DTD/svg11.dtd">
<svg version="1.1" id="Camada_1" xmlns="http://www.w3.org/2000/svg" xmlns:xlink="http://www.w3.org/1999/xlink" x="0px" y="0px"
	 width="612px" height="792px" viewBox="0 0 612 792" enable-background="new 0 0 612 792" xml:space="preserve">
<title>Prancheta 1</title>
<path fill="#006940" d="M151.837,56.34c-9.179,0.034-17.975,3.684-24.48,10.159l-35.007,35.007
	c-33.574,33.356-51.376,79.418-48.96,126.684c1.591,45.839,19.4,92.596,48.409,133.416l0,0
	c47.357,66.527,105.479,124.689,171.972,172.095l0,0c40.637,29.253,87.455,47.124,133.355,48.96
	c47.271,2.333,93.318-15.455,126.745-48.96l35.007-35.007c13.592-13.657,13.592-35.73,0-49.388l-91.801-91.8
	c-13.677-13.485-35.649-13.485-49.327,0l0,0l-63.342,62.485c-68.36-28.519-117.137-78.764-150.674-147.308l64.75-64.75
	c13.6-13.678,13.6-35.771,0-49.45l-91.8-91.8c-6.513-6.464-15.304-10.112-24.48-10.159L151.837,56.34z M151.837,68.58
	c6.016,0.018,11.781,2.416,16.034,6.671l91.8,91.8c8.806,8.876,8.806,23.193,0,32.069l-66.83,67.136
	c-0.75,0.509-1.376,1.178-1.836,1.958c-0.466,0.764-0.758,1.62-0.857,2.509c-0.194,1.563,0.222,3.142,1.163,4.406
	c35.129,73.134,87.639,127.479,161.324,157.406c1.323,0.792,2.897,1.054,4.406,0.734c1.553-0.287,2.935-1.165,3.855-2.447
	l65.239-65.301l0,0c8.89-8.773,23.179-8.773,32.068,0l91.8,91.8c8.8,8.855,8.8,23.152,0,32.008l-35.006,35.007
	c-30.733,31.331-73.355,48.09-117.198,46.083c-42.84-1.469-87.639-18.36-126.562-46.328c-65.635-46.684-123.014-104-169.769-169.585
	l0,0C73.44,315.338,56.793,270.54,55.08,227.7c-2.255-43.902,14.385-86.67,45.716-117.504l35.006-35.006
	C140.043,70.923,145.822,68.541,151.837,68.58z"/>
<path fill="#006940" d="M339.721,64.296H336.6c-1.635,0.007-3.2,0.668-4.345,1.836c-1.161,1.17-1.801,2.759-1.774,4.407
	c0.067,1.634,0.744,3.185,1.896,4.345c1.19,1.116,2.776,1.711,4.406,1.652c124.358-2.265,217.934,93.697,214.2,213.282
	c-0.092,1.643,0.482,3.253,1.592,4.468c1.109,1.198,2.651,1.903,4.283,1.958c1.66,0.059,3.273-0.56,4.468-1.714
	c1.168-1.145,1.829-2.709,1.836-4.345c4.162-125.215-94.064-226.44-223.318-225.95L339.721,64.296z"/>
<path fill="#006940" d="M346.27,145.325c-5.892-0.043-11.779,0.305-17.626,1.041c-1.635,0.166-3.134,0.981-4.161,2.265
	c-0.498,0.639-0.871,1.365-1.102,2.142c-0.121,0.791-0.121,1.596,0,2.387c0.196,1.654,1.058,3.157,2.387,4.162
	c0.627,0.502,1.359,0.858,2.142,1.041c0.81,0.154,1.64,0.154,2.448,0c87.149-10.22,152.144,72.338,138.435,138.74
	c-0.716,3.304,1.382,6.562,4.686,7.277c0.009,0.002,0.018,0.004,0.026,0.006c1.611,0.331,3.287,0,4.651-0.918
	c1.343-0.913,2.268-2.322,2.57-3.917C495.72,228.618,432.929,145.753,346.27,145.325z"/>
<path fill="#006940" d="M96.512,233.147c-0.847-0.001-1.683,0.187-2.448,0.551c-0.783,0.346-1.475,0.87-2.02,1.53
	c-0.557,0.642-0.974,1.392-1.224,2.203c-0.173,0.828-0.173,1.682,0,2.509c5.202,49.817,52.02,119.952,112.669,181.09
	c60.649,61.14,134.945,112.67,199.022,120.442c0.787,0.156,1.599,0.156,2.387,0c0.782-0.183,1.515-0.538,2.142-1.041
	c1.329-1.004,2.19-2.507,2.387-4.161c0.121-0.791,0.121-1.596,0-2.387c-0.227-0.791-0.623-1.521-1.162-2.143
	c-1.027-1.282-2.527-2.099-4.162-2.264c-58.752-7.161-132.62-56.978-192.168-117.076
	c-59.547-60.098-104.713-130.601-109.181-173.686c-0.134-1.555-0.856-3-2.02-4.039C99.572,233.65,98.063,233.103,96.512,233.147z"/>
</svg>
