<svg id="Camada_1" data-name="Camada 1" xmlns="http://www.w3.org/2000/svg" viewBox="0 0 100 125"><defs><style>.cls-1{fill:#58595b;stroke:#58595b;stroke-miterlimit:10;}</style></defs><title>Prancheta 1</title><path class="cls-1" d="M24.81,7a5.7,5.7,0,0,0-4,1.66l-5.72,5.72a27.22,27.22,0,0,0-8,20.7c.26,7.49,3.17,15.13,7.91,21.8h0A120,120,0,0,0,43.1,85h0c6.64,4.78,14.29,7.7,21.79,8a27.35,27.35,0,0,0,20.71-8l5.72-5.72a5.72,5.72,0,0,0,0-8.07l-15-15a5.74,5.74,0,0,0-8.06,0h0L57.91,66.42C46.74,61.76,38.77,53.55,33.29,42.35L43.87,31.77a5.73,5.73,0,0,0,0-8.08l-15-15a5.72,5.72,0,0,0-4-1.66Zm0,2a3.72,3.72,0,0,1,2.62,1.09l15,15a3.72,3.72,0,0,1,0,5.24L31.51,41.3a1,1,0,0,0-.3.32,1,1,0,0,0-.14.41,1,1,0,0,0,.19.72C37,54.7,45.58,63.58,57.62,68.47a1,1,0,0,0,.72.12,1,1,0,0,0,.63-.4L69.63,57.52h0a3.73,3.73,0,0,1,5.24,0l15,15a3.71,3.71,0,0,1,0,5.23l-5.72,5.72A25.21,25.21,0,0,1,65,91c-7-.24-14.32-3-20.68-7.57A118.21,118.21,0,0,1,16.58,55.72h0C12,49.32,9.28,42,9,35A25.13,25.13,0,0,1,16.47,15.8l5.72-5.72A3.66,3.66,0,0,1,24.81,9Z"/><path class="cls-1" d="M55.51,8.3H55a1,1,0,0,0-.71.3,1,1,0,0,0-.29.72,1.07,1.07,0,0,0,.31.71,1,1,0,0,0,.72.27c20.32-.37,35.61,15.31,35,34.85a1,1,0,0,0,.26.73,1,1,0,0,0,.7.32,1,1,0,0,0,.73-.28,1,1,0,0,0,.3-.71c.68-20.46-15.37-37-36.49-36.92Z"/><path class="cls-1" d="M56.58,21.54a21.79,21.79,0,0,0-2.88.17,1,1,0,0,0-.68.37,1.06,1.06,0,0,0-.18.35,1.29,1.29,0,0,0,0,.39,1,1,0,0,0,.39.68.88.88,0,0,0,.35.17,1.07,1.07,0,0,0,.4,0C68.22,22,78.84,35.49,76.6,46.34a1,1,0,0,0,.77,1.19,1,1,0,0,0,.76-.15,1,1,0,0,0,.42-.64C81,35.15,70.74,21.61,56.58,21.54Z"/><path class="cls-1" d="M15.77,35.89a.93.93,0,0,0-.4.09.9.9,0,0,0-.33.25,1,1,0,0,0-.2.36,1,1,0,0,0,0,.41c.85,8.14,8.5,19.6,18.41,29.59S55.3,85,65.77,86.27a1,1,0,0,0,.39,0,.88.88,0,0,0,.35-.17,1,1,0,0,0,.39-.68,1.29,1.29,0,0,0,0-.39.92.92,0,0,0-.19-.35,1,1,0,0,0-.68-.37C56.43,83.14,44.36,75,34.63,65.18S17.52,43.84,16.79,36.8a1,1,0,0,0-.33-.66,1,1,0,0,0-.69-.25Z"/></svg>