<?xml version="1.0" encoding="utf-8"?>
<!-- Generator: Adobe Illustrator 22.1.0, SVG Export Plug-In . SVG Version: 6.00 Build 0)  -->
<svg version="1.1" id="Layer_1" xmlns="http://www.w3.org/2000/svg" xmlns:xlink="http://www.w3.org/1999/xlink" x="0px" y="0px"
	 viewBox="-247 358.9 100 125" style="enable-background:new -247 358.9 100 125;" xml:space="preserve">
<style type="text/css">
	.st0{fill:#606060;}
</style>
<path class="st0" d="M-148.4,401.1c-6.6-5.4-6.9-14.9-6.9-15c0-0.5-0.5-1-1-1h-9c-0.5,0-1,0.4-1,1c0,0.1-0.3,9.6-6.9,15
	c-0.3,0.3-0.4,0.7-0.3,1.1c0.1,0.4,0.5,0.7,0.9,0.7h10.8v40.3c-4.8,0.1-8.5,1-8.5,2c0,1.1,4.3,2,9.5,2s9.5-0.9,9.5-2
	c0-1-3.7-1.9-8.5-2v-40.3h5v8.7c-0.4,0.4-0.6,1.2-0.6,2.2c0,1.3,0.5,2.4,1.1,2.4s1.1-1.1,1.1-2.4c0-0.9-0.3-1.8-0.6-2.2v-8.7h4.8
	c0.4,0,0.8-0.3,0.9-0.7C-148,401.8-148.1,401.4-148.4,401.1z M-170.1,400.9c4.5-4.9,5.5-11.3,5.7-13.7h7.1c0.3,2.3,1.3,8.8,5.8,13.7
	H-170.1z"/>
<path class="st0" d="M-216.4,382.1c0-2.3,1.6-4.3,3.8-4.7c-0.3-0.1-0.7-0.1-1-0.1c-2.7,0-4.8,2.2-4.8,4.8s2.2,4.8,4.8,4.8
	c0.3,0,0.7,0,1-0.1C-214.8,386.4-216.4,384.5-216.4,382.1z"/>
<path class="st0" d="M-228.9,407.6h21.1v-37.3h-21.1V407.6z M-209.8,372.3v27.1c-1.7,0-3.5-0.2-5.5-0.7c-7.2-2.1-10.3-0.8-11.7,0.7
	v-27h17.2V372.3z"/>
<path class="st0" d="M-205.4,370.3v37.3h21.1v-37.3H-205.4z M-186.2,372.3v21.6c-1.4-1.6-4-3.3-8,0.1c-5.1,4.4-8.3,4.7-9.2,4.7
	v-26.4H-186.2z"/>
<path class="st0" d="M-168.1,424.8c-1.2-1.5-3.3-1.6-3.3-1.6c-1.5-0.2-1.9-2-1.9-2c-1.4-8.3-9.1-8.1-9.1-8.1h-48.5
	c-0.1,0-7.8-0.2-9.1,8.1c0,0-0.4,1.9-1.8,2.1c-0.1,0-2.1,0.1-3.3,1.6c-0.8,1-1.1,2.4-0.7,4.1c0.9,4.4,4.1,11.9,4.2,12.2
	c0,0.1,1.2,2.7,4.8,2.7h1.3l-0.8,3.8h2.1l1.9-3.8h51.3l1.9,3.8h2.1l-0.8-3.8h1.3c3.6,0,4.8-2.6,4.8-2.7c0.1-0.3,3.3-7.8,4.2-12.2
	C-167,427.1-167.3,425.8-168.1,424.8z M-230.9,415C-230.9,415-230.8,415-230.9,415h48.6c0.2,0,4.5-0.1,6.4,4.1
	c-0.7,0.1-1.5,0.4-2.3,1c-2.1,1.5-3.6,4.2-4.4,8.1c-1.6-0.8-3.3-1.2-5-1.2h-37.9c-1.8,0-3.5,0.4-5,1.2c-0.8-3.9-2.3-6.6-4.4-8.1
	c-0.8-0.6-1.6-0.9-2.3-1C-235.5,415.2-231.5,415-230.9,415z M-231.8,431.3l1.4-0.9c1.5-0.9,3.1-1.4,4.9-1.4h37.9
	c1.7,0,3.4,0.5,4.9,1.4l1.4,0.9H-231.8z M-179.2,433.3c0,0.1,0,0.2,0,0.2l-0.6,2.5c-0.2,0.5-0.7,0.9-1.2,0.9h-51.2
	c-0.5,0-1-0.3-1.1-0.8l-0.6-2.5c0-0.1,0-0.2,0-0.2h54.7V433.3z M-238.6,441.4c-0.9-0.4-1.2-1.1-1.2-1.1c0-0.1-3.2-7.6-4.1-11.8
	c-0.2-1.1-0.1-1.9,0.3-2.4c0.6-0.8,1.8-0.9,1.9-0.9c3.1-0.4,3.7-3.6,3.7-3.8c0-0.1,0.1-0.3,0.1-0.4c1.4,0.2,4.2,1.6,5.5,8.3l-2,1.3
	l0,0c-1.1,0.7-1.7,2.1-1.4,3.4l0.6,2.5v0.1C-236.2,437.4-238.1,439-238.6,441.4z M-236.6,441.8c0.4-1.7,1.8-2.9,2.6-3.5
	c0.5,0.4,1.2,0.6,1.9,0.6h51.1c0.7,0,1.3-0.2,1.9-0.6c0.8,0.6,2.2,1.8,2.6,3.5H-236.6z M-169.3,428.4c-0.8,4.2-4,11.7-4.1,11.8
	c0,0-0.3,0.7-1.2,1.1c-0.5-2.4-2.3-4-3.4-4.8v-0.1l0.6-2.5c0.3-1.3-0.2-2.7-1.4-3.4l-2-1.3c1.2-6.7,4.1-8,5.5-8.3
	c0,0.1,0.1,0.3,0.1,0.4c0,0.1,0.7,3.4,3.7,3.7c0,0,1.2,0.1,1.8,0.9C-169.2,426.5-169.1,427.4-169.3,428.4z"/>
</svg>
