<?xml version="1.0" encoding="utf-8"?>
<!-- Generator: Adobe Illustrator 22.1.0, SVG Export Plug-In . SVG Version: 6.00 Build 0)  -->
<svg version="1.1" id="Camada_1" xmlns="http://www.w3.org/2000/svg" xmlns:xlink="http://www.w3.org/1999/xlink" x="0px" y="0px"
	 viewBox="0 0 100 125" style="enable-background:new 0 0 100 125;" xml:space="preserve">
<g>
	<path d="M50.2,35.2c-5.4,0-9.8,4.4-9.8,9.8s4.4,9.8,9.8,9.8S60,50.5,60,45S55.6,35.2,50.2,35.2z M50.2,52.7c-4.2,0-7.6-3.4-7.6-7.6
		s3.4-7.6,7.6-7.6s7.6,3.4,7.6,7.6S54.4,52.7,50.2,52.7z"/>
	<path d="M91.4,55.5c0-4.5-4.6-8.9-12.7-12.1v2c6.8,2.7,10.5,6.2,10.5,10c0,7.2-13.7,13.2-32.6,14.4L55,70l3.7-3.7l-1.5-1.5
		l-6.5,6.5l6.5,6.5l1.5-1.5l-4-4l1.5-0.1C76.3,70.9,91.4,63.8,91.4,55.5z"/>
	<path d="M68.6,25.6l0-6.1c0-0.6,0.5-1,1-1l0,0c0.6,0,1,0.5,1,1l0,6.1c0,0.6-0.5,1-1,1l0,0C69.1,26.6,68.6,26.1,68.6,25.6z"/>
	<path d="M65.2,25.5l0-3.5c0-0.6,0.5-1,1-1l0,0c0.6,0,1,0.5,1,1l0,3.5c0,0.6-0.5,1-1,1l0,0C65.7,26.6,65.2,26.1,65.2,25.5z"/>
	<path d="M61.8,25.5l0-1.2c0-0.6,0.5-1,1-1l0,0c0.6,0,1,0.5,1,1l0,1.2c0,0.6-0.5,1-1,1l0,0C62.3,26.5,61.8,26.1,61.8,25.5z"/>
	<path d="M11.1,55.5c0-3.6,3.3-6.9,9.4-9.6l-0.2,5.9l2,0.1l0.3-9.1l-7.5-3.4l-0.8,1.8l6,2.7c-7.3,3.1-11.4,7.3-11.4,11.5
		c0,8,14.4,15,33.6,16.5v-2.2C24,68.5,11.1,62.7,11.1,55.5z"/>
	<g>
		<rect x="61.9" y="34.9" width="6.6" height="2.5"/>
	</g>
</g>
<path d="M74,30.2H62.4c-0.9,0-1.5-0.7-2.1-1.3c-0.9-1-1.9-2.2-4.9-2.2H45c-1.8,0-3.1,1.1-4.3,2c-0.9,0.8-1.8,1.5-2.7,1.5H26.4v30.1
	H74L74,30.2L74,30.2z M71.8,58.1H28.6V32.4H38c1.5,0,2.3-0.7,3.3-1.6c1-0.9,2.1-1.9,4.1-1.9h10c2,0,3,1,4,1.9c0.8,0.8,1.6,1.6,3,1.6
	h9.4L71.8,58.1L71.8,58.1z"/>
</svg>
