<?xml version="1.0" encoding="utf-8"?>
<!-- Generator: Adobe Illustrator 22.1.0, SVG Export Plug-In . SVG Version: 6.00 Build 0)  -->
<svg version="1.1" id="Isolation_Mode" xmlns="http://www.w3.org/2000/svg" xmlns:xlink="http://www.w3.org/1999/xlink" x="0px"
	 y="0px" viewBox="-265 388.9 64 64" style="enable-background:new -265 388.9 64 64;" xml:space="preserve">
<style type="text/css">
	.st0{fill:#58595B;}
</style>
<path class="st0" d="M-233,388.9c-17.6,0-32,14.4-32,32c0,17.6,14.4,32,32,32s32-14.4,32-32C-201,403.2-215.4,388.9-233,388.9z
	 M-218.7,413.6c0,0.3,0,0.6,0,1c0,9.7-7.4,21-21,21c-4.2,0-8-1.2-11.3-3.3c0.6,0.1,1.2,0.1,1.8,0.1c3.5,0,6.6-1.2,9.1-3.2
	c-3.2-0.1-5.9-2.2-6.9-5.1c0.4,0.1,0.9,0.1,1.4,0.1c0.7,0,1.3-0.1,1.9-0.3c-3.4-0.7-5.9-3.7-5.9-7.2c0,0,0-0.1,0-0.1
	c1,0.6,2.1,0.9,3.3,0.9c-2-1.3-3.3-3.6-3.3-6.1c0-1.4,0.4-2.6,1-3.7c3.6,4.5,9.1,7.4,15.2,7.7c-0.1-0.5-0.2-1.1-0.2-1.7
	c0-4.1,3.3-7.4,7.4-7.4c2.1,0,4,0.9,5.4,2.3c1.7-0.3,3.3-0.9,4.7-1.8c-0.6,1.7-1.7,3.2-3.2,4.1c1.5-0.2,2.9-0.6,4.2-1.2
	C-216,411.2-217.3,412.5-218.7,413.6z"/>
</svg>
