<?xml version="1.0" encoding="utf-8"?>
<!-- Generator: Adobe Illustrator 22.1.0, SVG Export Plug-In . SVG Version: 6.00 Build 0)  -->
<svg version="1.1" id="Isolation_Mode" xmlns="http://www.w3.org/2000/svg" xmlns:xlink="http://www.w3.org/1999/xlink" x="0px"
	 y="0px" viewBox="-265 388.9 64 64" style="enable-background:new -265 388.9 64 64;" xml:space="preserve">
<style type="text/css">
	.st0{fill:#58595B;}
</style>
<path class="st0" d="M-233,388.9c-17.6,0-32,14.4-32,32c0,17.6,14.4,32,32,32s32-14.4,32-32C-201,403.2-215.4,388.9-233,388.9z
	 M-243.8,409.6h21.5c3,0,5.5,2.5,5.5,5.5v11.5c0,3-2.5,5.5-5.5,5.5h-21.5c-3,0-5.5-2.5-5.5-5.5v-11.5
	C-249.3,412.1-246.8,409.6-243.8,409.6z M-228.5,420c0.5,0.3,0.7,0.9,0.4,1.3c-0.1,0.2-0.2,0.3-0.4,0.4l-3.1,1.6l-3.4,1.8
	c-0.5,0.3-1.1,0.1-1.3-0.4c-0.1-0.1-0.1-0.3-0.1-0.5v-6.7c0-0.6,0.4-1,1-1c0.2,0,0.3,0,0.5,0.1l3.4,1.8L-228.5,420z"/>
</svg>
