<?xml version="1.0" encoding="utf-8"?>
<!-- Generator: Adobe Illustrator 22.1.0, SVG Export Plug-In . SVG Version: 6.00 Build 0)  -->
<svg version="1.1" id="Layer_1" xmlns="http://www.w3.org/2000/svg" xmlns:xlink="http://www.w3.org/1999/xlink" x="0px" y="0px"
	 viewBox="-247 379.2 100 83.6" style="enable-background:new -247 379.2 100 83.6;" xml:space="preserve">
<style type="text/css">
	.st0{fill:#58595B;}
</style>
<path class="st0" d="M-156.1,407.9l-8.2-21.2c-1.5-4.1-4.9-7.5-11.2-7.5h-11.6h-19.8h-11.8c-6.3,0-9.7,3.5-11.2,7.5l-8.2,21.2
	c-3.3,0.4-9,4.2-9,11.5v27h8v8.6c0,10.6,15,10.5,15,0v-8.6h27h26.9v8.6c0,10.5,15,10.6,15.1,0v-8.6h8v-27
	C-147,412.2-152.8,408.4-156.1,407.9z M-231.3,430.1c-3.8,0-6.9-3.2-6.9-7.1c0-4,3.1-7.2,6.9-7.1c3.8,0,6.9,3.2,6.9,7.1
	C-224.3,426.9-227.5,430.1-231.3,430.1z M-197,407.7L-197,407.7h-32.5l6.2-16.7c0.7-2.4,1.9-4.1,4.6-4.1h21.6h0.1h21.6
	c2.7,0,3.9,1.7,4.6,4.1l6.2,16.7H-197z M-162.7,430.1c-3.9,0-7-3.2-7-7.1c0-4,3.1-7.2,7-7.1c3.8,0,6.9,3.2,6.9,7.1
	C-155.8,426.9-158.9,430.1-162.7,430.1z"/>
</svg>
