<?xml version="1.0" encoding="utf-8"?>
<!-- Generator: Adobe Illustrator 22.1.0, SVG Export Plug-In . SVG Version: 6.00 Build 0)  -->
<svg version="1.1" id="Layer_1" xmlns="http://www.w3.org/2000/svg" xmlns:xlink="http://www.w3.org/1999/xlink" x="0px" y="0px"
	 viewBox="-390 260.3 60 75" style="enable-background:new -390 260.3 60 75;" xml:space="preserve">
<style type="text/css">
	.st0{fill:none;stroke:#606060;stroke-linecap:round;stroke-linejoin:round;stroke-miterlimit:10;}
</style>
<g>
	<g transform="translate(-720.000000, -402.000000)">
		<g transform="translate(720.000000, 403.000000)">
			<path class="st0" d="M-375.4,295.2h-1.3c-1.1,0-2-0.9-2-2v-6.7c0-1.1,0.9-2,2-2h1.3c1.1,0,2,0.9,2,2v6.7
				C-373.4,294.3-374.3,295.2-375.4,295.2L-375.4,295.2z"/>
			<polygon class="st0" points="-356.4,316.6 -363.6,316.6 -360,308.6 			"/>
			<polygon class="st0" points="-364.5,321.1 -363.6,316.6 -356.4,316.6 -355.5,321.1 			"/>
			<path class="st0" d="M-369.6,303.4l-0.2-0.1l-0.9,3.6l7.1,9.8l3.6-8C-363.7,308.6-367.1,306.5-369.6,303.4L-369.6,303.4z"/>
			<path class="st0" d="M-350.4,303.4c-2.4,3.1-5.8,5.2-9.6,5.2l3.6,8l7.1-9.8l-0.9-3.6L-350.4,303.4L-350.4,303.4z"/>
			<path class="st0" d="M-336.3,313.7c-4.9-2.6-9.6-4.6-13.9-5.1h-0.4l-5.8,8l0.9,4.4h-0.3l0,0h21.7v-3.8
				C-334.2,315.7-335,314.4-336.3,313.7L-336.3,313.7z"/>
			<path class="st0" d="M-369.4,308.6h-0.4c-4.3,0.5-9,2.5-13.9,5.1c-1.3,0.7-2.2,2.1-2.2,3.6v3.8h21.4l0.9-4.5L-369.4,308.6
				L-369.4,308.6z"/>
			<polygon class="st0" points="-364.5,321.1 -364.1,321.1 -364.1,321.1 			"/>
			<path class="st0" d="M-344.6,295.2h1.3c1.1,0,2-0.9,2-2v-6.7c0-1.1-0.9-2-2-2h-1.3c-1.1,0-2,0.9-2,2v6.7
				C-346.6,294.3-345.7,295.2-344.6,295.2L-344.6,295.2z"/>
			<path class="st0" d="M-344,284.5c0-11.7-8.2-15.1-16-15.1c-7.8,0-16,3.5-16,15.1"/>
			<path class="st0" d="M-373.4,286.3c0-7.4,6-13.4,13.4-13.4s13.4,6,13.4,13.4v6.2c0,7.9-6,16-13.4,16s-13.4-8.2-13.4-16V286.3
				L-373.4,286.3z"/>
			<path class="st0" d="M-344,295.2c0,3.9-2.4,7.1-15.1,7.1"/>
		</g>
	</g>
</g>
</svg>
