<?xml version="1.0" encoding="utf-8"?>
<!-- Generator: Adobe Illustrator 16.0.0, SVG Export Plug-In . SVG Version: 6.00 Build 0)  -->
<!DOCTYPE svg PUBLIC "-//W3C//DTD SVG 1.1//EN" "http://www.w3.org/Graphics/SVG/1.1/DTD/svg11.dtd">
<svg version="1.1" id="Camada_1" xmlns="http://www.w3.org/2000/svg" xmlns:xlink="http://www.w3.org/1999/xlink" x="0px" y="0px"
	 width="500px" height="500px" viewBox="0 0 500 500" enable-background="new 0 0 500 500" xml:space="preserve">
<path stroke="#000000" stroke-width="0.5" stroke-miterlimit="10" d="M424.5,155.44h-40v-27.001c0-22-18.499-39.5-40.5-39.5
	l-269,0.5c-22,0-40,17.5-40,39.5v134.5c0,21.5,18,39.5,40,39.5h40.5v27c0,22,18,40,40,40h186l67.5,77.5c0.5,1,2,1.5,3.5,1.5
	c2.5,0,5-2,5-5V369.44h7c22,0,40.5-18,40.5-40v-134C465,173.439,446.5,155.44,424.5,155.44z M115.5,292.44H75
	c-16.5,0-30-13.5-30-29.5V128.439c0-16,13.5-29.5,30-29.5h269c17,0,30.5,13,30.5,29.5v27.001h-219c-22,0-40,17.999-40,40V292.44z
	 M455,328.939c0,16.5-13.999,30-30.5,30h-12c-3,0-5,2-5,5v66l-60-69c-1-1-2.5-1.5-4-1.5h-188c-16.5,0-30-13.5-30-30v-134
	c0-16.5,13.5-30,30-30h269c16.5,0,30.5,13.5,30.5,29.5V328.939z"/>
<path stroke="#000000" stroke-width="0.5" stroke-miterlimit="10" d="M155.5,155.44h219v-27.001c0-16.5-13.5-29.5-30.5-29.5H75
	c-16.5,0-30,13.5-30,29.5V262.94c0,16,13.5,29.5,30,29.5h40.5v-97C115.5,173.439,133.5,155.44,155.5,155.44z"/>
<path stroke="#000000" stroke-width="0.5" stroke-miterlimit="10" d="M293,242.939c12.5,0,23,10,23,22.5s-10.5,22.5-23,22.5
	c-13,0-23-10-23-22.5S280,242.939,293,242.939z M293,252.939c-7.5,0-13,5.5-13,12.5s5.5,12.5,13,12.5c7,0,13-5.5,13-12.5
	S300,252.939,293,252.939z"/>
<path stroke="#000000" stroke-width="0.5" stroke-miterlimit="10" d="M376.5,242.939c12.5,0,23,10,23,22.5s-10.5,22.5-23,22.5
	s-22.999-10-22.999-22.5S364,242.939,376.5,242.939z M376.5,252.939c-7,0-12.999,5.5-12.999,12.5s5.499,12.5,12.999,12.5
	c7.001,0,13-6,13-12.5C389.5,258.439,384,252.939,376.5,252.939z"/>
<path stroke="#000000" stroke-width="0.5" stroke-miterlimit="10" d="M209,242.939c12.5,0,23,10,23,22.5s-10.5,22.5-23,22.5
	s-23-10-23-22.5S196.5,242.939,209,242.939z M209,252.939c-7,0-13,5.5-13,12.5s6,12.5,13,12.5s13-5.5,13-12.5
	S216,252.939,209,252.939z"/>
</svg>
