<?xml version="1.0" encoding="utf-8"?>
<!-- Generator: Adobe Illustrator 16.0.0, SVG Export Plug-In . SVG Version: 6.00 Build 0)  -->
<!DOCTYPE svg PUBLIC "-//W3C//DTD SVG 1.1//EN" "http://www.w3.org/Graphics/SVG/1.1/DTD/svg11.dtd">
<svg version="1.1" id="Layer_1" xmlns="http://www.w3.org/2000/svg" xmlns:xlink="http://www.w3.org/1999/xlink" x="0px" y="0px"
	 width="612px" height="792px" viewBox="0 0 612 792" enable-background="new 0 0 612 792" xml:space="preserve">
<g transform="translate(-720.000000, -402.000000)">
	<g transform="translate(720.000000, 403.000000)">
		<path fill="none" stroke="#E1A71A" stroke-width="11" stroke-linecap="round" stroke-linejoin="round" stroke-miterlimit="10" d="
			M152.302,392.141h-13.26c-11.22,0-20.4-9.18-20.4-20.399v-68.341c0-11.22,9.18-20.399,20.4-20.399h13.26
			c11.22,0,20.4,9.18,20.4,20.399v68.341C172.702,382.96,163.522,392.141,152.302,392.141L152.302,392.141z"/>
		
			<polygon fill="none" stroke="#E1A71A" stroke-width="11" stroke-linecap="round" stroke-linejoin="round" stroke-miterlimit="10" points="
			346.102,610.422 272.662,610.422 309.382,528.82 		"/>
		
			<polygon fill="none" stroke="#E1A71A" stroke-width="11" stroke-linecap="round" stroke-linejoin="round" stroke-miterlimit="10" points="
			263.482,656.32 272.662,610.422 346.102,610.422 355.282,656.32 		"/>
		<path fill="none" stroke="#E1A71A" stroke-width="11" stroke-linecap="round" stroke-linejoin="round" stroke-miterlimit="10" d="
			M211.462,475.781l-2.04-1.02l-9.18,36.719l72.42,99.961l36.72-81.6C271.642,528.82,236.962,507.4,211.462,475.781L211.462,475.781
			z"/>
		<path fill="none" stroke="#E1A71A" stroke-width="11" stroke-linecap="round" stroke-linejoin="round" stroke-miterlimit="10" d="
			M407.302,475.781c-24.479,31.619-59.159,53.039-97.92,53.039l36.72,81.602l72.42-99.961l-9.18-36.719L407.302,475.781
			L407.302,475.781z"/>
		<path fill="none" stroke="#E1A71A" stroke-width="11" stroke-linecap="round" stroke-linejoin="round" stroke-miterlimit="10" d="
			M551.122,580.842c-49.979-26.521-97.92-46.92-141.78-52.021h-4.08l-59.159,81.602l9.18,44.879h-3.06l0,0h221.34v-38.76
			C572.542,601.242,564.382,587.98,551.122,580.842L551.122,580.842z"/>
		<path fill="none" stroke="#E1A71A" stroke-width="11" stroke-linecap="round" stroke-linejoin="round" stroke-miterlimit="10" d="
			M213.502,528.82h-4.08c-43.859,5.102-91.8,25.5-141.78,52.021c-13.26,7.139-22.44,21.42-22.44,36.719v38.76h218.28l9.18-45.898
			L213.502,528.82L213.502,528.82z"/>
		
			<polygon fill="none" stroke="#E1A71A" stroke-width="11" stroke-linecap="round" stroke-linejoin="round" stroke-miterlimit="10" points="
			263.482,656.32 267.562,656.32 267.562,656.32 		"/>
		<path fill="none" stroke="#E1A71A" stroke-width="11" stroke-linecap="round" stroke-linejoin="round" stroke-miterlimit="10" d="
			M466.462,392.141h13.26c11.22,0,20.4-9.18,20.4-20.399v-68.341c0-11.22-9.181-20.399-20.4-20.399h-13.26
			c-11.22,0-20.4,9.18-20.4,20.399v68.341C446.062,382.96,455.242,392.141,466.462,392.141L466.462,392.141z"/>
		<path fill="none" stroke="#E1A71A" stroke-width="11" stroke-linecap="round" stroke-linejoin="round" stroke-miterlimit="10" d="
			M472.582,283.001c0-119.341-83.641-154.021-163.2-154.021s-163.2,35.7-163.2,154.021"/>
		<path fill="none" stroke="#E1A71A" stroke-width="11" stroke-linecap="round" stroke-linejoin="round" stroke-miterlimit="10" d="
			M172.702,301.361c0-75.48,61.2-136.68,136.68-136.68c75.479,0,136.68,61.199,136.68,136.68v63.24
			c0,80.581-61.2,163.2-136.68,163.2c-75.48,0-136.68-83.641-136.68-163.2V301.361L172.702,301.361z"/>
		<path fill="none" stroke="#E1A71A" stroke-width="11" stroke-linecap="round" stroke-linejoin="round" stroke-miterlimit="10" d="
			M472.582,392.141c0,39.781-24.48,72.419-154.021,72.419"/>
	</g>
</g>
</svg>
