<?xml version="1.0" encoding="utf-8"?>
<!-- Generator: Adobe Illustrator 22.1.0, SVG Export Plug-In . SVG Version: 6.00 Build 0)  -->
<svg version="1.1" id="Layer_1" xmlns="http://www.w3.org/2000/svg" xmlns:xlink="http://www.w3.org/1999/xlink" x="0px" y="0px"
	 viewBox="-247 358.9 100 125" style="enable-background:new -247 358.9 100 125;" xml:space="preserve">
<style type="text/css">
	.st0{fill:#58595B;}
</style>
<g>
	<path class="st0" d="M-162.4,395.3c-0.3,0-0.6,0-0.8,0v-1.7c0-7.6-6.2-13.7-13.7-13.7h-40c-7.6,0-13.7,6.2-13.7,13.7v1.7
		c-0.3,0-0.6,0-0.8,0c-5.7,0-10.4,4.7-10.4,10.4c0,4.2,2.6,8,6.4,9.6v2.4c0,2.4,1,4.7,2.6,6.3c-1.5,0.7-2.6,2.2-2.6,4
		c0,2.5,2,4.4,4.4,4.4h4.7v3.9c0,0.8,0.7,1.5,1.5,1.5c0.8,0,1.5-0.7,1.5-1.5v-3.9h53.1v3.9c0,0.8,0.7,1.5,1.5,1.5
		c0.8,0,1.5-0.7,1.5-1.5v-3.9h4.4c2.5,0,4.4-2,4.4-4.4c0-1.8-1.1-3.3-2.6-4c1.6-1.6,2.6-3.8,2.6-6.3v-2.4c3.8-1.6,6.4-5.4,6.4-9.6
		C-152,400-156.7,395.3-162.4,395.3z M-166.3,393.6v2.5c-3.8,1.5-6.5,5.3-6.5,9.7c0,0.2,0,0.3,0,0.5h-4.8c-1.6,0-2.8-1.3-2.8-2.8
		v-17.6c0-1.6,1.3-2.8,2.8-2.8h0.7C-171.1,383-166.3,387.7-166.3,393.6z M-200.8,406.3h-7.8c-1.6,0-2.8-1.3-2.8-2.8v-17.6
		c0-1.6,1.3-2.8,2.8-2.8h7.8c1.6,0,2.8,1.3,2.8,2.8v17.6C-198,405-199.3,406.3-200.8,406.3z M-193.2,383h7.8c1.6,0,2.8,1.3,2.8,2.8
		v17.6c0,1.6-1.3,2.8-2.8,2.8h-7.8c-1.6,0-2.8-1.3-2.8-2.8v-17.6C-196,384.2-194.7,383-193.2,383z M-227.7,393.6
		c0-5.9,4.8-10.7,10.7-10.7h0.7c1.6,0,2.8,1.3,2.8,2.8v17.6c0,1.6-1.3,2.8-2.8,2.8h-4.8c0-0.2,0-0.3,0-0.5c0-4.4-2.7-8.1-6.5-9.7
		L-227.7,393.6L-227.7,393.6z M-235.1,412.2c-2.3-1.3-3.8-3.7-3.8-6.4c0-4.1,3.3-7.4,7.4-7.4s7.4,3.3,7.4,7.4c0,0.2,0,0.3,0,0.5
		h-2.5C-230.6,406.3-233.9,408.7-235.1,412.2z M-162.8,429.4h-68.4c-0.8,0-1.4-0.6-1.4-1.4s0.6-1.4,1.4-1.4h4.4h29.7h29.7h4.4
		c0.8,0,1.4,0.6,1.4,1.4S-162,429.4-162.8,429.4z M-161.4,417.7c0,3.2-2.6,5.8-5.8,5.8H-197h-29.7c-3.2,0-5.8-2.6-5.8-5.8v-2.5
		c0-3.2,2.6-5.8,5.8-5.8h29.7h29.7c3.2,0,5.8,2.6,5.8,5.8V417.7z M-158.9,412.2c-1.2-3.4-4.5-5.9-8.4-5.9h-2.5c0-0.2,0-0.3,0-0.5
		c0-4.1,3.3-7.4,7.4-7.4s7.4,3.3,7.4,7.4C-155.1,408.5-156.6,410.9-158.9,412.2z"/>
</g>
</svg>
