<?xml version="1.0" encoding="utf-8"?>
<!-- Generator: Adobe Illustrator 22.1.0, SVG Export Plug-In . SVG Version: 6.00 Build 0)  -->
<svg version="1.1"
	 id="Camada_1" xmlns:cc="http://creativecommons.org/ns#" xmlns:dc="http://purl.org/dc/elements/1.1/" xmlns:rdf="http://www.w3.org/1999/02/22-rdf-syntax-ns#"
	 xmlns="http://www.w3.org/2000/svg" xmlns:xlink="http://www.w3.org/1999/xlink" x="0px" y="0px" viewBox="0 0 100 125"
	 style="enable-background:new 0 0 100 125;" xml:space="preserve">
<g transform="translate(0,-952.36218)">
	<path d="M30.3,981.7c4.9,0,9.8,1.9,13.5,5.6l5.3,5.3c0.4,0.4,1.1,0.4,1.6,0c0,0,0,0,0,0l5.3-5.3c7.5-7.5,19.6-7.5,27.1,0
		s7.5,19.6,0,27.1l-5.3,5.3L50,1047.6l-27.8-27.8l-5.3-5.3c-7.5-7.5-7.5-19.6,0-27.1C20.6,983.5,25.4,981.7,30.3,981.7L30.3,981.7z
		 M30.3,979.5c-5.5,0-10.9,2.1-15.1,6.3c-8.3,8.4-8.3,21.9,0,30.2l5.3,5.3l28.6,28.6c0.4,0.4,1.1,0.4,1.6,0c0,0,0,0,0,0l28.6-28.6
		l5.3-5.3c8.3-8.4,8.3-21.9,0-30.2c-8.3-8.4-21.8-8.4-30.2,0l-4.6,4.6l-4.6-4.6C41.3,981.6,35.8,979.5,30.3,979.5L30.3,979.5z"/>
	<polygon points="12.2,989.8 23.2,981.7 35.7,981.7 42.5,985.7 49.6,991.4 58.3,984.5 71.5,979.5 84.4,986.2 90.3,1000.2 
		86.6,1012.2 50.6,1048.6 11.8,1009.7 9,998.9 	"/>
</g>
</svg>
