<?xml version="1.0" encoding="utf-8"?>
<!-- Generator: Adobe Illustrator 22.1.0, SVG Export Plug-In . SVG Version: 6.00 Build 0)  -->
<svg version="1.1" id="Camada_1" xmlns="http://www.w3.org/2000/svg" xmlns:xlink="http://www.w3.org/1999/xlink" x="0px" y="0px"
	 viewBox="0 0 64 80" style="enable-background:new 0 0 64 80;" xml:space="preserve">
<g>
	<path d="M7,57h8c0.6,0,1-0.4,1-1v-0.4l7.5,3.1c4.1,1.7,8.6,1.7,12.7,0.1L51.6,53c0.9-0.3,1.7-1,2-1.9c0.4-0.9,0.4-1.9,0.1-2.9
		c-0.3-0.8-0.9-1.5-1.7-1.9V22.5l3.2,2.1c1.4,0.9,3.3,0.6,4.3-0.9s0.6-3.3-0.9-4.3L51.8,15H52V8c0-0.6-0.4-1-1-1h-5
		c-0.6,0-1,0.4-1,1v2.5l-9.4-6.3c-0.3-0.2-0.8-0.2-1.1,0L11.4,19.6c-1.4,0.9-1.8,2.9-0.9,4.3s2.9,1.8,4.3,0.9l3.2-2.1V42h-2
		c0-0.6-0.4-1-1-1H7c-0.6,0-1,0.4-1,1H2v2h4v10H2v2h4C6,56.6,6.4,57,7,57z M47,9h3v4.8l-3-2V9z M13.7,23c-0.5,0.3-1.2,0.2-1.5-0.3
		c-0.1-0.2-0.2-0.4-0.2-0.6c0-0.4,0.2-0.7,0.5-0.9L35,6.2l22.5,15c0.3,0.2,0.5,0.5,0.5,0.9c0,0.6-0.5,1.1-1.1,1.1
		c-0.2,0-0.4-0.1-0.6-0.2L35.6,9.2c-0.3-0.2-0.8-0.2-1.1,0L13.7,23z M35,11.2l15,10v24.7c-0.4,0-0.7,0.1-1.1,0.3l-6.5,2.8
		c0-0.1,0-0.2,0-0.4c0-1.9-1.6-3.5-3.5-3.5h-7.8c-0.8,0-1.6-0.2-2.3-0.5c-2.8-1.4-5.9-2.2-9-2.4V21.2L35,11.2z M18.5,44
		c3.3,0,6.6,0.8,9.6,2.3c1,0.5,2.1,0.7,3.2,0.7H39c0.8,0,1.5,0.7,1.5,1.5c0,0.7-0.5,1.3-1.2,1.5c-0.1,0-0.3,0-0.4,0H27v2h11.9
		c0,0,0,0,0.1,0l0,0c0,0,0,0,0.1,0c0.8,0,1.6-0.2,2.3-0.5l8.4-3.5c0.4-0.2,0.8-0.2,1.2,0c0.4,0.2,0.7,0.5,0.9,0.9
		c0.2,0.4,0.2,0.9,0,1.3c-0.2,0.4-0.5,0.7-0.9,0.9L35.5,57c-3.6,1.4-7.7,1.3-11.3-0.1L16,53.5V44H18.5z M8,43h6v12H8V43z"/>
	<rect x="10" y="51" width="2" height="2"/>
</g>
<path d="M40.8,29.7c-0.8-0.7-2.5-1.4-5-2.3v-5.9c1,0.1,1.7,0.5,2.1,1.2c0.2,0.4,0.4,1.1,0.5,2h4.1c-0.1-2.5-1-4.3-2.7-5.4
	c-1-0.7-2.3-1.1-4-1.2V16h-1.5v2.1c-1.1,0.1-1.9,0.2-2.4,0.4c-0.9,0.3-1.7,0.8-2.5,1.5c-0.6,0.6-1,1.3-1.3,2
	c-0.3,0.8-0.5,1.7-0.5,2.6c0,1.5,0.4,2.7,1.2,3.8c0.8,1,2.2,1.8,4.2,2.4l1.3,0.4v6.7c-1.2-0.2-2-0.7-2.4-1.4
	c-0.3-0.4-0.5-1.3-0.6-2.6h-4.2c0,2.9,0.8,4.9,2.6,6.1c1,0.7,2.5,1.1,4.6,1.3V43h1.5v-1.7c1.6-0.1,3-0.6,4.2-1.3
	c1.9-1.2,2.9-3.1,2.9-5.7C42.9,32.4,42.2,30.8,40.8,29.7z M34.4,27c-0.8-0.2-1.3-0.5-1.7-0.8c-0.7-0.5-1-1.2-1-2.1
	c0-0.8,0.2-1.4,0.7-1.9c0.4-0.5,1.1-0.7,2-0.7L34.4,27L34.4,27z M37.7,37.3c-0.4,0.3-1,0.5-1.8,0.6v-6.1c0.9,0.3,1.5,0.6,1.8,0.9
	c0.6,0.5,0.9,1.2,0.9,2.1C38.6,36,38.3,36.8,37.7,37.3z"/>
</svg>
