<?xml version="1.0" encoding="utf-8"?>
<!-- Generator: Adobe Illustrator 22.1.0, SVG Export Plug-In . SVG Version: 6.00 Build 0)  -->
<svg version="1.1" id="Camada_1" xmlns="http://www.w3.org/2000/svg" xmlns:xlink="http://www.w3.org/1999/xlink" x="0px" y="0px"
	 viewBox="0 0 100 125" style="enable-background:new 0 0 100 125;" xml:space="preserve">
<style type="text/css">
	.st0{fill:#58595B;}
</style>
<path class="st0" d="M76.4,101.4H56.3c-0.8,0-1.5-0.7-1.5-1.5V86.6H44.5v13.3c0,0.8-0.7,1.5-1.5,1.5H23.7c-0.8,0-1.5-0.7-1.5-1.5V73
	H15c-0.6,0-1.2-0.4-1.4-0.9c-0.2-0.6-0.1-1.2,0.3-1.6l34.9-34.9c0.6-0.6,1.5-0.6,2.1,0l9.9,9.9v-2.9c0-0.8,0.7-1.5,1.5-1.5h8.2
	c0,0,0,0,0,0c0.1-1.3-1.1-2.5-3.7-3.7c-1.7-0.8-4-1.9-3.9-4.8c0.1-2.6,2.3-4.6,5-4.4c0.8,0,1.5,0.8,1.4,1.6c0,0.8-0.7,1.5-1.6,1.4
	c-1-0.1-1.8,0.6-1.8,1.6c0,0.7,0.1,1,2.1,2c1.5,0.7,5.6,2.7,5.5,6.5c0.7,0.1,1.2,0.7,1.2,1.5v16.8l11.1,11.1
	c0.4,0.4,0.6,1.1,0.3,1.6S85.4,73,84.8,73h-6.9v26.9C77.9,100.7,77.2,101.4,76.4,101.4z M57.8,98.4h17.1V73H25.2v25.4h16.3V85.1
	c0-0.8,0.7-1.5,1.5-1.5h13.3c0.8,0,1.5,0.7,1.5,1.5V98.4z M18.6,70h62.6L49.9,38.7L18.6,70z M63.9,48.5l7.9,7.9V44.1h-7.9V48.5z
	 M36,67.5c-0.4,0-0.8-0.1-1.1-0.4c-0.6-0.6-0.6-1.5,0-2.1l14.2-14.2c0.6-0.6,1.5-0.6,2.1,0s0.6,1.5,0,2.1L37.1,67.1
	C36.8,67.4,36.4,67.5,36,67.5z M28.6,67.5c-0.4,0-0.8-0.1-1.1-0.4c-0.6-0.6-0.6-1.5,0-2.1l21.4-21.4c0.6-0.6,1.5-0.6,2.1,0
	c0.6,0.6,0.6,1.5,0,2.1L29.7,67.1C29.4,67.4,29,67.5,28.6,67.5z"/>
</svg>
