<?xml version="1.0" encoding="utf-8"?>
<!-- Generator: Adobe Illustrator 16.0.0, SVG Export Plug-In . SVG Version: 6.00 Build 0)  -->
<!DOCTYPE svg PUBLIC "-//W3C//DTD SVG 1.1//EN" "http://www.w3.org/Graphics/SVG/1.1/DTD/svg11.dtd">
<svg version="1.1" id="Camada_1" xmlns="http://www.w3.org/2000/svg" xmlns:xlink="http://www.w3.org/1999/xlink" x="0px" y="0px"
	 width="500px" height="500px" viewBox="0 0 500 500" enable-background="new 0 0 500 500" xml:space="preserve">
<g transform="translate(0,-952.36218)">
	<path stroke="#000000" stroke-width="0.5" stroke-miterlimit="10" d="M344,1041.301c22.001,0,40.5,17.5,40.5,39.5v27.001h40
		c22,0,40.5,17.999,40.5,40v134c0,22-18.5,40-40.5,40h-7v74.499c0,3-2.5,5-5,5c-1.5,0-3-0.5-3.5-1.5l-67.5-77.5h-186
		c-22,0-40-18-40-40v-27H75c-22,0-40-18-40-39.5v-134.5c0-22,18-39.5,40-39.5L344,1041.301L344,1041.301z M344,1051.301H75
		c-16.5,0-30,13.5-30,29.5v134.501c0,16,13.5,29.5,30,29.5h40.5v-97c0-22.001,18-40,40-40h219v-27.001
		C374.5,1064.301,361,1051.301,344,1051.301z M424.5,1117.801h-269c-16.5,0-30,13.5-30,30v134c0,16.5,13.5,30,30,30h188
		c1.5,0,3,0.5,4,1.5l60,69v-66c0-3,2-5,5-5h12c16.501,0,30.5-13.5,30.5-30v-134C455,1131.301,441,1117.801,424.5,1117.801z"/>
	<path stroke="#000000" stroke-width="0.5" stroke-miterlimit="10" d="M293,1195.301c12.5,0,23,10,23,22.5s-10.5,22.5-23,22.5
		c-13,0-23-10-23-22.5S280,1195.301,293,1195.301z M293,1205.301c-7.5,0-13,5.5-13,12.5s5.5,12.5,13,12.5c7,0,13-5.5,13-12.5
		S300,1205.301,293,1205.301z"/>
	<path stroke="#000000" stroke-width="0.5" stroke-miterlimit="10" d="M376.5,1195.301c12.5,0,23,10,23,22.5s-10.5,22.5-23,22.5
		s-22.999-10-22.999-22.5S364,1195.301,376.5,1195.301z M376.5,1205.301c-7,0-12.999,5.5-12.999,12.5s5.499,12.5,12.999,12.5
		c7.001,0,13-6,13-12.5C389.5,1210.801,384,1205.301,376.5,1205.301z"/>
	<path stroke="#000000" stroke-width="0.5" stroke-miterlimit="10" d="M209,1195.301c12.5,0,23,10,23,22.5s-10.5,22.5-23,22.5
		s-23-10-23-22.5S196.5,1195.301,209,1195.301z M209,1205.301c-7,0-13,5.5-13,12.5s6,12.5,13,12.5s13-5.5,13-12.5
		S216,1205.301,209,1205.301z"/>
</g>
</svg>
