<?xml version="1.0" encoding="utf-8"?>
<!-- Generator: Adobe Illustrator 22.1.0, SVG Export Plug-In . SVG Version: 6.00 Build 0)  -->
<svg version="1.1" id="Layer_1" xmlns="http://www.w3.org/2000/svg" xmlns:xlink="http://www.w3.org/1999/xlink" x="0px" y="0px"
	 viewBox="0 0 495 495" style="enable-background:new 0 0 495 495;" xml:space="preserve">
<style type="text/css">
	.st0{fill:#FFFFFF;}
	.st1{fill:#606060;}
</style>
<path class="st0" d="M267.3,0.3h-20H-0.1v495h247.5h40h207.5V0.3H267.3z M454.8,455.3H287.3h-40H39.8v-415h207.5h20h187.5V455.3z"/>
<g>
	<g transform="translate(0,-952.36218)">
		<g transform="translate(-2250,1727.0002)">
			<path class="st1" d="M2391.2-617c-1.6,0-2.9,1.3-2.9,2.9v211.5c0,1.6,1.3,2.9,2.9,2.9h200.1c1.6,0,2.9-1.3,2.9-2.9v-211.5
				c0-1.6-1.3-2.9-2.9-2.9H2391.2z M2394.1-611.3h194.4v205.8h-62.9v-54.3c0-1.6-1.3-2.9-2.9-2.9h-62.9c-1.6,0-2.9,1.3-2.9,2.9v54.3
				h-62.9V-611.3z M2408.4-599.8c-1.6,0-2.9,1.3-2.9,2.9v28.6c0,1.6,1.3,2.9,2.9,2.9h28.6c1.6,0,2.9-1.3,2.9-2.9V-597
				c0-1.6-1.3-2.9-2.9-2.9H2408.4z M2454.1-599.8c-1.6,0-2.9,1.3-2.9,2.9v28.6c0,1.6,1.3,2.9,2.9,2.9h28.6c1.6,0,2.9-1.3,2.9-2.9
				V-597c0-1.6-1.3-2.9-2.9-2.9H2454.1z M2499.9-599.8c-1.6,0-2.9,1.3-2.9,2.9v28.6c0,1.6,1.3,2.9,2.9,2.9h28.6
				c1.6,0,2.9-1.3,2.9-2.9V-597c0-1.6-1.3-2.9-2.9-2.9H2499.9z M2545.6-599.8c-1.6,0-2.9,1.3-2.9,2.9v28.6c0,1.6,1.3,2.9,2.9,2.9
				h28.6c1.6,0,2.9-1.3,2.9-2.9V-597c0-1.6-1.3-2.9-2.9-2.9H2545.6z M2411.3-594.1h22.9v22.9h-22.9V-594.1z M2457-594.1h22.9v22.9
				H2457V-594.1z M2502.7-594.1h22.9v22.9h-22.9V-594.1z M2548.5-594.1h22.9v22.9h-22.9V-594.1z M2408.4-554.1
				c-1.6,0-2.9,1.3-2.9,2.9v28.6c0,1.6,1.3,2.9,2.9,2.9h28.6c1.6,0,2.9-1.3,2.9-2.9v-28.6c0-1.6-1.3-2.9-2.9-2.9H2408.4z
				 M2454.1-554.1c-1.6,0-2.9,1.3-2.9,2.9v28.6c0,1.6,1.3,2.9,2.9,2.9h28.6c1.6,0,2.9-1.3,2.9-2.9v-28.6c0-1.6-1.3-2.9-2.9-2.9
				H2454.1z M2499.9-554.1c-1.6,0-2.9,1.3-2.9,2.9v28.6c0,1.6,1.3,2.9,2.9,2.9h28.6c1.6,0,2.9-1.3,2.9-2.9v-28.6
				c0-1.6-1.3-2.9-2.9-2.9H2499.9z M2545.6-554.1c-1.6,0-2.9,1.3-2.9,2.9v28.6c0,1.6,1.3,2.9,2.9,2.9h28.6c1.6,0,2.9-1.3,2.9-2.9
				v-28.6c0-1.6-1.3-2.9-2.9-2.9H2545.6z M2411.3-548.4h22.9v22.9h-22.9V-548.4z M2457-548.4h22.9v22.9H2457V-548.4z M2502.7-548.4
				h22.9v22.9h-22.9V-548.4z M2548.5-548.4h22.9v22.9h-22.9V-548.4z M2408.4-508.4c-1.6,0-2.9,1.3-2.9,2.9v28.6
				c0,1.6,1.3,2.9,2.9,2.9h28.6c1.6,0,2.9-1.3,2.9-2.9v-28.6c0-1.6-1.3-2.9-2.9-2.9H2408.4z M2454.1-508.4c-1.6,0-2.9,1.3-2.9,2.9
				v28.6c0,1.6,1.3,2.9,2.9,2.9h28.6c1.6,0,2.9-1.3,2.9-2.9v-28.6c0-1.6-1.3-2.9-2.9-2.9H2454.1z M2499.9-508.4
				c-1.6,0-2.9,1.3-2.9,2.9v28.6c0,1.6,1.3,2.9,2.9,2.9h28.6c1.6,0,2.9-1.3,2.9-2.9v-28.6c0-1.6-1.3-2.9-2.9-2.9H2499.9z
				 M2545.6-508.4c-1.6,0-2.9,1.3-2.9,2.9v28.6c0,1.6,1.3,2.9,2.9,2.9h28.6c1.6,0,2.9-1.3,2.9-2.9v-28.6c0-1.6-1.3-2.9-2.9-2.9
				H2545.6z M2411.3-502.6h22.9v22.9h-22.9V-502.6z M2457-502.6h22.9v22.9H2457V-502.6z M2502.7-502.6h22.9v22.9h-22.9V-502.6z
				 M2548.5-502.6h22.9v22.9h-22.9V-502.6z M2408.4-462.6c-1.6,0-2.9,1.3-2.9,2.9v28.6c0,1.6,1.3,2.9,2.9,2.9h28.6
				c1.6,0,2.9-1.3,2.9-2.9v-28.6c0-1.6-1.3-2.9-2.9-2.9H2408.4z M2545.6-462.6c-1.6,0-2.9,1.3-2.9,2.9v28.6c0,1.6,1.3,2.9,2.9,2.9
				h28.6c1.6,0,2.9-1.3,2.9-2.9v-28.6c0-1.6-1.3-2.9-2.9-2.9H2545.6z M2411.3-456.9h22.9v22.9h-22.9V-456.9z M2462.7-456.9h25.7
				v51.5h-25.7V-456.9z M2494.2-456.9h25.7v51.5h-25.7V-456.9z M2548.5-456.9h22.9v22.9h-22.9V-456.9z"/>
		</g>
	</g>
	<g transform="translate(833.75,-1405.2192)">
		<path class="st1" d="M-459.6,1618.7l-12.3-12.3l1.1-1c1.4-1.2,2.4-2.2,3.6-3.6l1-1.1l12.3,12.3l12.3,12.3l-2.8,2.8
			c-1.5,1.5-2.8,2.8-2.9,2.8S-452.8,1625.4-459.6,1618.7L-459.6,1618.7z M-456.3,1573v-4h17.4h17.4v4v4h-17.4l-17.4,0V1573
			L-456.3,1573z M-545.4,1532.9l-12.3-12.3l2.8-2.8l2.8-2.8l12.3,12.3c6.8,6.8,12.3,12.3,12.3,12.4c0,0.1-0.7,0.7-1.5,1.4
			c-0.8,0.7-2,1.9-2.7,2.7c-0.7,0.8-1.3,1.4-1.4,1.5C-533,1545.1-538.6,1539.6-545.4,1532.9L-545.4,1532.9z M-467.6,1543.7
			c-0.7-0.8-2-2.1-2.8-2.8l-1.6-1.4l12.4-12.4l12.4-12.4l2.8,2.8c1.5,1.5,2.8,2.9,2.8,3c0,0.2-24.4,24.7-24.6,24.7
			C-466.2,1545.1-466.9,1544.5-467.6,1543.7z M-503.7,1512.2v-17.4h4.1h4.1v17.4v17.4h-4.1h-4.1V1512.2z"/>
	</g>
</g>
</svg>
