<?xml version="1.0" encoding="utf-8"?>
<!-- Generator: Adobe Illustrator 22.1.0, SVG Export Plug-In . SVG Version: 6.00 Build 0)  -->
<svg version="1.1" id="Layer_1" xmlns="http://www.w3.org/2000/svg" xmlns:xlink="http://www.w3.org/1999/xlink" x="0px" y="0px"
	 viewBox="-164 42.3 512 512" style="enable-background:new -164 42.3 512 512;" xml:space="preserve">
<style type="text/css">
	.st0{fill:#606060;}
</style>
<g id="Guides">
</g>
<g>
	<path class="st0" d="M168,179.8H16c-24.3,0-44,19.7-44,44v152c0,24.3,19.7,44,44,44H168c24.3,0,44-19.8,44-44v-152
		C212.1,199.6,192.3,179.8,168,179.8z M92,378.9c-43.6,0-79-35.5-79-79s35.5-79,79-79c43.6,0,79,35.5,79,79S135.6,378.9,92,378.9z
		 M173.6,237.2c-10.3,0-18.7-8.4-18.7-18.7c0-10.3,8.4-18.7,18.7-18.7c10.3,0,18.7,8.4,18.7,18.7
		C192.3,228.8,183.9,237.2,173.6,237.2z"/>
	<path class="st0" d="M92,254.2c-25.1,0-45.6,20.5-45.6,45.6c0,25.2,20.5,45.7,45.6,45.7c25.2,0,45.7-20.5,45.7-45.7
		C137.7,274.7,117.2,254.2,92,254.2z"/>
	<path class="st0" d="M92,44.1c-140.9,0-255.1,114.2-255.1,255.1S-48.9,554.3,92,554.3s255.1-114.2,255.1-255.1
		C347.1,158.3,232.9,44.1,92,44.1z M245.5,375.9c0,42.7-34.7,77.4-77.4,77.4H16c-42.7,0-77.4-34.7-77.4-77.4v-152
		c0-42.7,34.7-77.4,77.4-77.4H168c42.7,0,77.4,34.7,77.4,77.4V375.9z"/>
</g>
</svg>
