<?xml version="1.0" encoding="utf-8"?>
<!-- Generator: Adobe Illustrator 16.0.0, SVG Export Plug-In . SVG Version: 6.00 Build 0)  -->
<!DOCTYPE svg PUBLIC "-//W3C//DTD SVG 1.1//EN" "http://www.w3.org/Graphics/SVG/1.1/DTD/svg11.dtd">
<svg version="1.1" id="Layer_1" xmlns="http://www.w3.org/2000/svg" xmlns:xlink="http://www.w3.org/1999/xlink" x="0px" y="0px"
	 width="500px" height="500px" viewBox="0 0 500 500" enable-background="new 0 0 500 500" xml:space="preserve">
<path d="M250,0C112.209,0,0,112.209,0,250c0,51.162,15.116,98.838,42.442,139.535l-29.07,98.256
	c-1.163,2.906,0.582,6.396,4.07,6.977c1.163,0.581,2.326,0.581,3.488,0l95.93-33.14C155.232,486.047,201.163,500,250,500
	c137.791,0,250-112.209,250-250C500,112.209,387.791,0,250,0 M250,11.628c131.977,0,238.372,106.396,238.372,238.372
	S381.977,488.372,250,488.372c-47.674,0-92.442-13.953-129.651-38.372c-1.744-1.163-3.488-1.163-5.232-0.581l-87.791,30.813
	l26.744-90.116c0.582-1.744,0-3.488-0.582-5.232C26.744,345.93,11.628,299.418,11.628,250C11.628,118.023,118.604,11.628,250,11.628
	 M224.418,175L84.302,323.256l126.163-70.349L277.326,325l138.371-150l-122.674,68.604L224.418,175z"/>
</svg>
