<?xml version="1.0" encoding="utf-8"?>
<!-- Generator: Adobe Illustrator 16.0.0, SVG Export Plug-In . SVG Version: 6.00 Build 0)  -->
<!DOCTYPE svg PUBLIC "-//W3C//DTD SVG 1.1//EN" "http://www.w3.org/Graphics/SVG/1.1/DTD/svg11.dtd">
<svg version="1.1" id="Capa_1" xmlns="http://www.w3.org/2000/svg" xmlns:xlink="http://www.w3.org/1999/xlink" x="0px" y="0px"
	 width="500px" height="500px" viewBox="0 0 500 500" enable-background="new 0 0 500 500" xml:space="preserve">
<path d="M394.591,325.318L232.53,192.739c-2.226-1.806-5.25-2.184-7.811-0.924c-2.562,1.218-4.2,3.822-4.2,6.677v220.98
	c0,3.233,2.142,6.131,5.25,7.056c0.714,0.21,1.428,0.294,2.142,0.294c2.436,0,4.746-1.177,6.131-3.275l56.735-85.125h99.194
	c3.107,0,5.879-1.975,6.93-4.914C397.908,330.568,397.026,327.293,394.591,325.318z M286.83,323.639
	c-2.479,0-4.746,1.219-6.131,3.276l-45.439,68.159V213.989l134.05,109.692H286.83V323.639z M227.91,428.88
	c-0.924,0-1.848-0.125-2.729-0.378c-3.99-1.218-6.719-4.955-6.719-9.07V198.45c0-3.653,2.142-7.013,5.417-8.567
	c1.26-0.588,2.646-0.924,4.073-0.924c2.184,0,4.284,0.756,5.963,2.142l162.061,132.581c3.108,2.521,4.284,6.762,2.898,10.498
	c-1.345,3.738-4.914,6.301-8.903,6.301h-98.06l-56.148,84.158C234,427.284,231.06,428.88,227.91,428.88z M227.91,193.159
	c-0.798,0-1.554,0.168-2.268,0.504c-1.848,0.882-3.024,2.729-3.024,4.745v220.98c0,2.311,1.554,4.367,3.738,5.039
	c0.504,0.126,1.008,0.21,1.512,0.21c1.764,0,3.402-0.882,4.368-2.352l57.366-86.05h100.286c2.227,0,4.199-1.428,4.955-3.526
	c0.756-2.101,0.126-4.452-1.638-5.838L231.228,194.335C230.304,193.579,229.086,193.159,227.91,193.159z M233.16,402.003V209.537
	l142.03,116.202h-88.36c-1.764,0-3.4,0.882-4.367,2.352L233.16,402.003z M237.359,218.398v169.747l41.577-62.363
	c1.764-2.646,4.703-4.199,7.895-4.199h76.601L237.359,218.398z M227.91,73.219c-4.073,0-7.349,3.318-7.349,7.349v58.92
	c0,4.074,3.318,7.35,7.349,7.35c4.074,0,7.35-3.318,7.35-7.35v-58.92C235.26,76.537,231.942,73.219,227.91,73.219z M227.91,148.979
	c-5.208,0-9.449-4.242-9.449-9.449V80.568c-0.042-5.207,4.199-9.449,9.449-9.449c5.208,0,9.449,4.242,9.449,9.449v58.92
	C237.359,144.738,233.118,148.979,227.91,148.979z M227.91,75.319c-2.897,0-5.25,2.352-5.25,5.249v58.92
	c0,2.897,2.352,5.25,5.25,5.25s5.25-2.353,5.25-5.25v-58.92C233.16,77.671,230.808,75.319,227.91,75.319z M168.948,191.059h-58.92
	c-4.073,0-7.349,3.318-7.349,7.349c0,4.074,3.318,7.35,7.349,7.35h58.92c4.074,0,7.35-3.318,7.35-7.35
	C176.34,194.377,173.022,191.059,168.948,191.059z M168.948,207.899h-58.92c-5.207,0-9.449-4.242-9.449-9.449
	s4.242-9.449,9.449-9.449h58.92c5.208,0,9.449,4.241,9.449,9.449C178.439,203.658,174.198,207.899,168.948,207.899z
	 M110.028,193.159c-2.897,0-5.249,2.352-5.249,5.25c0,2.898,2.352,5.25,5.249,5.25h58.92c2.898,0,5.25-2.352,5.25-5.25
	c0-2.897-2.352-5.25-5.25-5.25H110.028z M345.75,191.059h-58.92c-4.073,0-7.35,3.318-7.35,7.349c0,4.074,3.317,7.35,7.35,7.35h58.92
	c4.073,0,7.35-3.318,7.35-7.35C353.1,194.377,349.823,191.059,345.75,191.059z M345.75,207.899h-58.92
	c-5.207,0-9.449-4.242-9.449-9.449s4.242-9.449,9.449-9.449h58.92c5.207,0,9.449,4.241,9.449,9.449S350.957,207.899,345.75,207.899z
	 M286.83,193.159c-2.896,0-5.25,2.352-5.25,5.25c0,2.898,2.354,5.25,5.25,5.25h58.92c2.897,0,5.249-2.352,5.249-5.25
	c0-2.897-2.352-5.25-5.249-5.25H286.83z M191.416,151.541l-41.66-41.66c-2.855-2.855-7.559-2.855-10.415,0
	c-2.855,2.856-2.855,7.56,0,10.415l41.66,41.66c1.428,1.428,3.318,2.142,5.208,2.142s3.78-0.714,5.208-2.142
	C194.314,159.101,194.314,154.439,191.416,151.541z M186.25,166.24c-2.52,0-4.914-0.966-6.677-2.772l-41.702-41.66
	c-1.806-1.806-2.771-4.157-2.771-6.677s0.966-4.913,2.771-6.677c1.806-1.806,4.158-2.771,6.677-2.771
	c2.52,0,4.914,0.966,6.677,2.771l41.66,41.66c1.806,1.806,2.772,4.158,2.772,6.677c0,2.52-0.966,4.914-2.772,6.677
	C191.164,165.232,188.771,166.24,186.25,166.24z M144.549,109.839c-1.428,0-2.729,0.546-3.737,1.554
	c-1.008,1.008-1.554,2.31-1.554,3.737c0,1.427,0.546,2.73,1.554,3.738l41.66,41.66c1.008,1.008,2.31,1.554,3.737,1.554
	c1.428,0,2.73-0.546,3.696-1.512c1.008-1.008,1.554-2.31,1.554-3.738c0-1.428-0.546-2.729-1.554-3.737l-41.66-41.66
	C147.279,110.386,145.977,109.839,144.549,109.839z M191.416,234.902c-2.855-2.855-7.559-2.855-10.415,0l-41.66,41.661
	c-2.855,2.854-2.855,7.559,0,10.414c1.428,1.428,3.318,2.143,5.208,2.143c1.89,0,3.78-0.715,5.208-2.184l41.66-41.661
	C194.314,242.462,194.314,237.8,191.416,234.902z M144.549,291.261c-2.52,0-4.914-0.966-6.677-2.772
	c-3.695-3.694-3.695-9.699,0-13.396l41.66-41.659c1.806-1.806,4.158-2.771,6.677-2.771c2.52,0,4.914,0.966,6.677,2.771
	c3.696,3.696,3.696,9.701,0,13.396l-41.66,41.658C149.462,290.253,147.111,291.261,144.549,291.261z M186.208,234.86
	c-1.428,0-2.729,0.546-3.737,1.554l-41.66,41.66c-2.058,2.058-2.058,5.375,0,7.434c1.008,1.008,2.31,1.553,3.737,1.553
	c1.386,0,2.73-0.545,3.696-1.553l41.702-41.66c2.058-2.058,2.058-5.375,0-7.433C188.938,235.406,187.637,234.86,186.208,234.86z
	 M316.438,109.881c-2.855-2.855-7.56-2.855-10.414,0l-41.66,41.66c-2.855,2.856-2.855,7.56,0,10.415
	c1.429,1.428,3.316,2.142,5.207,2.142s3.779-0.714,5.207-2.142l41.66-41.66C319.293,117.441,319.293,112.779,316.438,109.881z
	 M269.57,166.24c-2.521,0-4.914-0.966-6.678-2.772c-1.807-1.806-2.771-4.157-2.771-6.719c0-2.52,0.966-4.914,2.771-6.677
	l41.659-41.66c1.807-1.806,4.157-2.771,6.677-2.771c2.521,0,4.914,0.966,6.679,2.771c1.806,1.806,2.771,4.158,2.771,6.677
	c0,2.52-0.966,4.914-2.771,6.677l-41.66,41.66C274.482,165.232,272.09,166.24,269.57,166.24z M311.229,109.839
	c-1.428,0-2.729,0.546-3.736,1.554l-41.66,41.66c-1.008,1.008-1.555,2.31-1.555,3.737c0,1.428,0.547,2.73,1.555,3.738
	c1.008,1.008,2.311,1.554,3.738,1.554c1.427,0,2.729-0.546,3.695-1.512l41.7-41.66c1.009-1.008,1.556-2.31,1.556-3.738
	c0-1.428-0.547-2.729-1.556-3.737C313.959,110.386,312.615,109.839,311.229,109.839z"/>
</svg>
