<?xml version="1.0" encoding="utf-8"?>
<!-- Generator: Adobe Illustrator 16.0.0, SVG Export Plug-In . SVG Version: 6.00 Build 0)  -->
<!DOCTYPE svg PUBLIC "-//W3C//DTD SVG 1.1//EN" "http://www.w3.org/Graphics/SVG/1.1/DTD/svg11.dtd">
<svg version="1.1" id="Layer_1" xmlns="http://www.w3.org/2000/svg" xmlns:xlink="http://www.w3.org/1999/xlink" x="0px" y="0px"
	 width="90px" height="57.966px" viewBox="0 0 90 57.966" enable-background="new 0 0 90 57.966" xml:space="preserve">
<g>
	<defs>
		<rect id="SVGID_1_" width="90" height="57.966"/>
	</defs>
	<clipPath id="SVGID_2_">
		<use xlink:href="#SVGID_1_"  overflow="visible"/>
	</clipPath>
	<path clip-path="url(#SVGID_2_)" fill="#58595B" d="M79.576,15.427c-0.285,0-0.565,0.02-0.844,0.043v-1.741
		C78.732,6.159,72.573,0,65.003,0H24.997c-7.57,0-13.729,6.159-13.729,13.729v1.741c-0.279-0.023-0.559-0.043-0.844-0.043
		C4.676,15.427,0,20.103,0,25.851c0,4.201,2.562,7.978,6.356,9.586V37.8c0,2.443,0.99,4.658,2.59,6.268
		c-1.524,0.707-2.59,2.241-2.59,4.029c0,2.453,1.996,4.449,4.449,4.449h4.703v3.895c0,0.844,0.683,1.525,1.525,1.525
		c0.842,0,1.525-0.683,1.525-1.525v-3.895h53.136v3.895c0,0.844,0.683,1.525,1.524,1.525s1.525-0.683,1.525-1.525v-3.895h4.449
		c2.453,0,4.448-1.996,4.448-4.449c0-1.788-1.065-3.322-2.59-4.029c1.6-1.609,2.59-3.824,2.59-6.268v-2.363
		C87.438,33.828,90,30.051,90,25.851C90,20.103,85.324,15.427,79.576,15.427 M75.681,13.729v2.461
		c-3.821,1.547-6.528,5.291-6.528,9.661c0,0.172,0.021,0.339,0.029,0.508H64.34c-1.568,0-2.841-1.272-2.841-2.841V5.892
		c0-1.569,1.272-2.841,2.841-2.841h0.662C70.901,3.051,75.681,7.831,75.681,13.729 M41.159,26.359h-7.818
		c-1.569,0-2.841-1.272-2.841-2.841V5.892c0-1.569,1.272-2.841,2.841-2.841h7.818C42.728,3.051,44,4.323,44,5.892v17.626
		C44,25.087,42.728,26.359,41.159,26.359 M48.841,3.051h7.818c1.568,0,2.841,1.272,2.841,2.841v17.626
		c0,1.569-1.272,2.841-2.841,2.841h-7.818c-1.568,0-2.841-1.272-2.841-2.841V5.892C46,4.323,47.272,3.051,48.841,3.051
		 M14.319,13.729c0-5.897,4.781-10.678,10.678-10.678h0.662c1.569,0,2.841,1.272,2.841,2.841v17.626
		c0,1.569-1.272,2.841-2.841,2.841h-4.842c0.008-0.17,0.03-0.337,0.03-0.508c0-4.37-2.706-8.115-6.529-9.661L14.319,13.729
		L14.319,13.729z M6.876,32.288c-2.305-1.273-3.826-3.723-3.826-6.438c0-4.065,3.308-7.373,7.373-7.373s7.373,3.308,7.373,7.373
		c0,0.173-0.018,0.34-0.03,0.508h-2.513C11.39,26.359,8.103,28.839,6.876,32.288 M79.195,49.495h-68.39
		c-0.771,0-1.398-0.627-1.398-1.398c0-0.771,0.627-1.397,1.398-1.397h4.449H45h29.746h4.449c0.771,0,1.397,0.627,1.397,1.397
		C80.593,48.868,79.966,49.495,79.195,49.495 M80.593,37.8c0,3.224-2.623,5.847-5.847,5.847H45H15.254
		c-3.224,0-5.847-2.623-5.847-5.847v-2.542c0-3.224,2.623-5.847,5.847-5.847H45h29.746c3.224,0,5.847,2.624,5.847,5.847V37.8z
		 M83.124,32.288c-1.227-3.448-4.514-5.929-8.378-5.929h-2.513c-0.013-0.169-0.03-0.336-0.03-0.508c0-4.065,3.308-7.373,7.373-7.373
		c4.064,0,7.373,3.308,7.373,7.373C86.949,28.565,85.428,31.015,83.124,32.288"/>
</g>
</svg>
