<?xml version="1.0" encoding="utf-8"?>
<!-- Generator: Adobe Illustrator 22.1.0, SVG Export Plug-In . SVG Version: 6.00 Build 0)  -->
<svg version="1.1" id="Camada_1" xmlns="http://www.w3.org/2000/svg" xmlns:xlink="http://www.w3.org/1999/xlink" x="0px" y="0px"
	 viewBox="0 0 100 125" style="enable-background:new 0 0 100 125;" xml:space="preserve">
<style type="text/css">
	.st0{fill:#606060;}
</style>
<g transform="translate(0,-952.36218)">
	<path class="st0" d="M14,959.4c-3.9,0-7,3.1-7,7v72c0,3.9,3.1,7,7,7h66c0.6,0,1-0.4,1-1c0-0.6-0.4-1-1-1c0,0,0,0,0,0H51v-40h40v35
		c0,2.8-2.2,5-5,5c-0.6,0-1,0.4-1,1s0.4,1,1,1c0,0,0,0,0,0c3.9,0,7-3.1,7-7v-72c0-3.9-3.1-7-7-7H14z M14,961.4h35v40H9v-35
		C9,963.6,11.2,961.4,14,961.4z M51,961.4h35c2.8,0,5,2.2,5,5v35H51V961.4z M70.9,971.3c-0.5,0.1-0.9,0.5-0.9,1v8h-8
		c-0.1,0-0.1,0-0.2,0c-0.6,0.1-1,0.5-0.9,1.1c0.1,0.6,0.5,1,1.1,0.9l0,0h8v8c0,0.6,0.4,1,1,1s1-0.4,1-1c0,0,0,0,0,0v-8h8
		c0.6,0,1-0.4,1-1c0-0.6-0.4-1-1-1c0,0,0,0,0,0h-8v-8c0-0.6-0.4-1-1-1C71,971.3,70.9,971.3,70.9,971.3z M19.8,980.4
		c-0.6,0.1-1,0.5-0.9,1.1c0.1,0.6,0.5,1,1.1,0.9l0,0h18c0.6,0,1-0.4,1-1c0-0.6-0.4-1-1-1c0,0,0,0,0,0H20
		C19.9,980.4,19.9,980.4,19.8,980.4z M9,1003.4h40v40H14c-2.8,0-5-2.2-5-5V1003.4z M20.9,1014.3c-0.5,0.1-1,0.5-0.9,1.1
		c0,0.2,0.1,0.5,0.3,0.6l7.3,7.3l-7.3,7.3c-0.4,0.4-0.4,1,0,1.4c0.4,0.4,1,0.4,1.4,0c0,0,0,0,0,0l7.3-7.3l7.3,7.3
		c0.4,0.4,1,0.4,1.4,0c0.4-0.4,0.4-1,0-1.4l-7.3-7.3l7.3-7.3c0.4-0.4,0.4-1,0-1.4c-0.2-0.2-0.5-0.3-0.8-0.3c-0.3,0-0.5,0.1-0.7,0.3
		l-7.3,7.3l-7.3-7.3C21.5,1014.4,21.2,1014.3,20.9,1014.3z M61.8,1017.4c-0.6,0.1-1,0.5-0.9,1.1c0.1,0.6,0.5,1,1.1,0.9h18
		c0.6,0,1-0.4,1-1c0-0.6-0.4-1-1-1c0,0,0,0,0,0H62C61.9,1017.4,61.9,1017.4,61.8,1017.4z M61.8,1027.4c-0.6,0.1-1,0.5-0.9,1.1
		c0.1,0.6,0.5,1,1.1,0.9h18c0.6,0,1-0.4,1-1c0-0.6-0.4-1-1-1c0,0,0,0,0,0H62C61.9,1027.4,61.9,1027.4,61.8,1027.4z"/>
</g>
</svg>
