<?xml version="1.0" encoding="utf-8"?>
<!-- Generator: Adobe Illustrator 22.1.0, SVG Export Plug-In . SVG Version: 6.00 Build 0)  -->
<svg version="1.1" id="Camada_1" xmlns="http://www.w3.org/2000/svg" xmlns:xlink="http://www.w3.org/1999/xlink" x="0px" y="0px"
	 viewBox="0 0 100 125" style="enable-background:new 0 0 100 125;" xml:space="preserve">
<style type="text/css">
	.st0{fill:#58595B;stroke:#58595B;stroke-miterlimit:10;}
</style>
<g transform="translate(0,-952.36218)">
	<path class="st0" d="M24.8,959.4c-1.5,0-2.9,0.6-4,1.7l-5.7,5.7c-5.9,5.9-8.3,13.2-8,20.7c0.3,7.5,3.2,15.1,7.9,21.8c0,0,0,0,0,0
		c7.3,10.2,16.4,19.7,28.2,28.2v0c6.6,4.8,14.3,7.7,21.8,7.9c7.5,0.3,14.9-2.2,20.7-8.1l5.7-5.7c2.2-2.2,2.2-5.8,0-8.1l-15-15
		c-2.2-2.2-5.8-2.2-8.1,0c0,0,0,0,0,0l-10.3,10.3c-11.2-4.7-19.1-12.9-24.6-24.1l10.6-10.6c2.2-2.2,2.2-5.9,0-8.1l-15-15
		C27.7,959.9,26.3,959.4,24.8,959.4L24.8,959.4z M24.8,961.4c0.9,0,1.9,0.4,2.6,1.1l15,15c1.4,1.4,1.4,3.8,0,5.2l-10.9,10.9
		c-0.1,0.1-0.2,0.2-0.3,0.3c-0.1,0.1-0.1,0.3-0.1,0.4c0,0.3,0,0.5,0.2,0.7c5.7,11.9,14.3,20.8,26.4,25.7c0.2,0.1,0.5,0.2,0.7,0.1
		c0.2,0,0.5-0.2,0.6-0.4l10.7-10.7l0,0c1.4-1.4,3.8-1.4,5.2,0l15,15c1.4,1.4,1.4,3.8,0,5.2l-5.7,5.7c-5.5,5.5-12.2,7.7-19.2,7.5
		c-7-0.2-14.3-3-20.7-7.6c-11.6-8.3-20.5-17.6-27.7-27.7l0,0c-4.5-6.4-7.3-13.7-7.5-20.7c-0.2-7,2-13.7,7.4-19.2l5.7-5.7
		C22.9,961.7,23.9,961.4,24.8,961.4L24.8,961.4z"/>
	<path class="st0" d="M55.5,960.7c-0.2,0-0.3,0-0.5,0c-0.3,0-0.5,0.1-0.7,0.3c-0.2,0.2-0.3,0.5-0.3,0.7c0,0.3,0.1,0.5,0.3,0.7
		c0.2,0.2,0.5,0.3,0.7,0.3c20.3-0.4,35.6,15.3,35,34.8c0,0.3,0.1,0.5,0.3,0.7c0.2,0.2,0.4,0.3,0.7,0.3c0.3,0,0.5-0.1,0.7-0.3
		c0.2-0.2,0.3-0.4,0.3-0.7C92.7,977.1,76.6,960.5,55.5,960.7L55.5,960.7z"/>
	<path class="st0" d="M56.6,973.9c-0.9,0-1.9,0.1-2.9,0.2c-0.3,0-0.5,0.2-0.7,0.4c-0.1,0.1-0.1,0.2-0.2,0.4s0,0.3,0,0.4
		c0,0.3,0.2,0.5,0.4,0.7c0.1,0.1,0.2,0.1,0.4,0.2c0.1,0,0.3,0,0.4,0c14.3-1.7,24.9,11.8,22.6,22.6c-0.1,0.3,0,0.5,0.1,0.8
		c0.1,0.2,0.4,0.4,0.6,0.4s0.5,0,0.8-0.1c0.2-0.1,0.4-0.4,0.4-0.6C81,987.5,70.7,974,56.6,973.9z"/>
	<path class="st0" d="M15.8,988.2c-0.1,0-0.3,0-0.4,0.1c-0.1,0.1-0.2,0.1-0.3,0.2c-0.1,0.1-0.2,0.2-0.2,0.4c0,0.1-0.1,0.3,0,0.4
		c0.8,8.1,8.5,19.6,18.4,29.6c9.9,10,22.1,18.4,32.6,19.7c0.1,0,0.3,0,0.4,0s0.2-0.1,0.4-0.2c0.2-0.2,0.4-0.4,0.4-0.7
		c0-0.1,0-0.3,0-0.4c0-0.1-0.1-0.2-0.2-0.4c-0.2-0.2-0.4-0.3-0.7-0.4c-9.6-1.1-21.6-9.3-31.4-19.1c-9.7-9.8-17.1-21.3-17.8-28.4
		c0-0.2-0.1-0.5-0.3-0.7S16,988.2,15.8,988.2L15.8,988.2z"/>
</g>
</svg>
