<?xml version="1.0" encoding="utf-8"?>
<!-- Generator: Adobe Illustrator 16.0.0, SVG Export Plug-In . SVG Version: 6.00 Build 0)  -->
<!DOCTYPE svg PUBLIC "-//W3C//DTD SVG 1.1//EN" "http://www.w3.org/Graphics/SVG/1.1/DTD/svg11.dtd">
<svg version="1.1" id="Camada_1" xmlns="http://www.w3.org/2000/svg" xmlns:xlink="http://www.w3.org/1999/xlink" x="0px" y="0px"
	 width="612px" height="792px" viewBox="0 0 612 792" enable-background="new 0 0 612 792" xml:space="preserve">
<g transform="translate(0,-952.36218)">
	<path fill="#FFFFFF" stroke="#FCFCFC" stroke-miterlimit="10" d="M151.776,1008.933c-9.18,0-17.748,3.672-24.48,10.404
		l-34.884,34.884c-36.108,36.108-50.796,80.784-48.96,126.684c1.836,45.9,19.584,92.412,48.348,133.416l0,0
		c44.676,62.424,100.368,120.563,172.584,172.584l0,0c40.394,29.375,87.518,47.123,133.416,48.348
		c45.9,1.836,91.188-13.464,126.686-49.572l34.884-34.883c13.464-13.465,13.464-35.497,0-49.572l-91.8-91.8
		c-13.466-13.464-35.496-13.464-49.572,0l0,0l-63.036,63.036c-68.544-28.764-116.892-78.948-150.552-147.491l64.872-64.872
		c13.464-13.464,13.464-36.108,0-49.572l-91.8-91.8C169.524,1011.994,160.956,1008.933,151.776,1008.933L151.776,1008.933z
		 M151.776,1021.174c5.508,0,11.628,2.448,15.912,6.732l91.8,91.8c8.568,8.568,8.568,23.256,0,31.824l-66.708,66.708
		c-0.612,0.612-1.224,1.224-1.836,1.836c-0.612,0.612-0.612,1.836-0.612,2.448c0,1.836,0,3.06,1.224,4.284
		c34.884,72.828,87.516,127.296,161.568,157.284c1.224,0.612,3.06,1.226,4.284,0.612c1.224,0,3.06-1.224,3.672-2.448l65.484-65.483
		l0,0c8.566-8.568,23.256-8.568,31.822,0l91.801,91.8c8.567,8.568,8.567,23.257,0,31.823l-34.885,34.885
		c-33.66,33.659-74.664,47.123-117.504,45.899c-42.84-1.225-87.516-18.36-126.684-46.513
		c-70.992-50.796-125.46-107.712-169.524-169.523l0,0c-27.54-39.168-44.676-83.844-45.9-126.684
		c-1.224-42.84,12.24-83.844,45.288-117.504l34.884-34.884C140.148,1023.01,146.268,1021.174,151.776,1021.174L151.776,1021.174z"/>
	<path fill="#FFFFFF" stroke="#FCFCFC" stroke-miterlimit="10" d="M339.66,1016.89c-1.226,0-1.836,0-3.062,0
		c-1.836,0-3.06,0.612-4.282,1.836c-1.226,1.224-1.836,3.06-1.836,4.284c0,1.836,0.61,3.06,1.836,4.284
		c1.224,1.224,3.06,1.836,4.282,1.836c124.236-2.448,217.872,93.636,214.2,212.976c0,1.836,0.612,3.06,1.836,4.284
		c1.226,1.224,2.448,1.836,4.284,1.836s3.062-0.612,4.284-1.836s1.836-2.448,1.836-4.284
		C567.324,1117.257,468.792,1015.665,339.66,1016.89L339.66,1016.89z"/>
	<path fill="#FFFFFF" stroke="#FCFCFC" stroke-miterlimit="10" d="M346.392,1097.674c-5.508,0-11.628,0.612-17.748,1.224
		c-1.836,0-3.06,1.224-4.282,2.448c-0.612,0.612-0.612,1.224-1.226,2.448c-0.61,1.224,0,1.836,0,2.448
		c0,1.836,1.226,3.06,2.448,4.284c0.612,0.612,1.224,0.612,2.448,1.224c0.61,0,1.836,0,2.448,0
		c87.516-10.404,152.388,72.216,138.312,138.312c-0.612,1.836,0,3.06,0.612,4.896c0.61,1.224,2.446,2.448,3.672,2.448
		c1.224,0,3.06,0,4.896-0.612c1.226-0.612,2.448-2.448,2.448-3.672C495.72,1180.906,432.684,1098.286,346.392,1097.674z"/>
	<path fill="#FFFFFF" stroke="#FCFCFC" stroke-miterlimit="10" d="M96.696,1185.19c-0.612,0-1.836,0-2.448,0.612
		c-0.612,0.612-1.224,0.612-1.836,1.224c-0.612,0.612-1.224,1.224-1.224,2.448c0,0.612-0.612,1.836,0,2.448
		c4.896,49.572,52.02,119.952,112.608,181.151c60.588,61.2,135.252,112.608,199.512,120.563c0.612,0,1.836,0,2.448,0
		s1.225-0.611,2.448-1.224c1.224-1.225,2.448-2.448,2.448-4.284c0-0.612,0-1.836,0-2.448c0-0.61-0.612-1.224-1.226-2.446
		c-1.224-1.226-2.446-1.838-4.284-2.449c-58.752-6.731-132.19-56.916-192.167-116.892
		c-59.364-59.977-104.652-130.355-108.936-173.809c0-1.224-0.612-3.06-1.836-4.284C100.98,1184.577,97.92,1185.19,96.696,1185.19
		L96.696,1185.19z"/>
</g>
</svg>
